<svg width="221" height="149" viewBox="0 0 221 149" fill="none" xmlns="http://www.w3.org/2000/svg">
<path fill-rule="evenodd" clip-rule="evenodd" d="M199 1C204.523 1 209 5.47715 209 11V125C209 129.093 206.541 132.611 203.02 134.159C205.717 139.895 210.917 147.353 218.038 148C228.135 148.918 196.521 150.257 185.465 135H11C5.47716 135 1 130.523 1 125V11C1 5.47715 5.47716 1 11 1H199Z" fill="#FFBE19"/>
<path d="M203.02 134.159L202.568 134.372L202.35 133.908L202.819 133.701L203.02 134.159ZM218.038 148L217.993 148.498L217.993 148.498L218.038 148ZM185.465 135V134.5H185.72L185.87 134.707L185.465 135ZM208.5 11C208.5 5.75329 204.247 1.5 199 1.5V0.5C204.799 0.5 209.5 5.20101 209.5 11H208.5ZM208.5 125V11H209.5V125H208.5ZM202.819 133.701C206.165 132.231 208.5 128.887 208.5 125H209.5C209.5 129.298 206.917 132.992 203.221 134.617L202.819 133.701ZM217.993 148.498C214.266 148.159 211.08 146.043 208.507 143.332C205.932 140.619 203.931 137.271 202.568 134.372L203.473 133.946C204.806 136.784 206.753 140.032 209.233 142.644C211.714 145.258 214.689 147.193 218.083 147.502L217.993 148.498ZM185.87 134.707C191.276 142.167 201.77 145.62 209.773 147.074C213.76 147.798 217.078 148.017 218.758 148.002C219.181 147.998 219.482 147.979 219.658 147.954C219.758 147.939 219.774 147.929 219.749 147.94C219.739 147.944 219.715 147.956 219.686 147.977C219.658 147.998 219.606 148.041 219.563 148.116C219.515 148.199 219.487 148.308 219.506 148.427C219.523 148.537 219.575 148.613 219.61 148.654C219.644 148.695 219.677 148.719 219.692 148.729C219.709 148.74 219.721 148.746 219.723 148.747C219.727 148.748 219.717 148.743 219.686 148.734C219.624 148.716 219.522 148.692 219.371 148.665C219.07 148.612 218.617 148.555 217.993 148.498L218.083 147.502C218.72 147.56 219.204 147.62 219.544 147.68C219.713 147.71 219.858 147.742 219.973 147.776C220.03 147.793 220.091 147.815 220.148 147.841C220.193 147.862 220.291 147.912 220.372 148.007C220.417 148.06 220.474 148.148 220.493 148.269C220.514 148.4 220.484 148.52 220.43 148.614C220.341 148.769 220.2 148.834 220.158 148.853C220.045 148.903 219.909 148.928 219.799 148.944C219.557 148.978 219.204 148.997 218.768 149.002C217.015 149.018 213.632 148.791 209.595 148.058C201.552 146.596 190.71 143.09 185.06 135.293L185.87 134.707ZM11 134.5H185.465V135.5H11V134.5ZM1.5 125C1.5 130.247 5.7533 134.5 11 134.5V135.5C5.20102 135.5 0.5 130.799 0.5 125H1.5ZM1.5 11V125H0.5V11H1.5ZM11 1.5C5.7533 1.5 1.5 5.75329 1.5 11H0.5C0.5 5.20101 5.20102 0.5 11 0.5V1.5ZM199 1.5H11V0.5H199V1.5Z" fill="#A5A5A5"/>
<path d="M16.528 16.288V16.852H21.544V16.288H16.528ZM15.172 15.436H22.972V17.704H15.172V15.436ZM18.28 14.812H19.708V18.604H18.28V14.812ZM13.564 18.136H24.436V19.204H13.564V18.136ZM16.456 21.676V22.168H21.64V21.676H16.456ZM16.456 22.936V23.428H21.64V22.936H16.456ZM16.456 20.428V20.908H21.64V20.428H16.456ZM15.064 19.612H23.104V24.244H15.064V19.612ZM19.66 24.82L20.896 24.136C22.144 24.532 23.62 25.072 24.472 25.432L22.732 26.08C22.072 25.732 20.86 25.216 19.66 24.82ZM17.02 24.1L18.304 24.688C17.32 25.276 15.772 25.816 14.548 26.128C14.308 25.84 13.816 25.324 13.504 25.084C14.776 24.88 16.204 24.52 17.02 24.1ZM30.148 24.328H36.988V25.744H30.148V24.328ZM30.64 18.532H36.7V19.912H30.64V18.532ZM32.932 14.932H34.408V25.012H32.932V14.932ZM25.84 17.032H29.776V18.34H25.84V17.032ZM27.556 21.136L28.984 19.432V26.092H27.556V21.136ZM27.556 14.824H28.984V17.644H27.556V14.824ZM28.84 19.84C29.26 20.128 30.616 21.328 30.94 21.628L30.064 22.792C29.596 22.168 28.588 21.064 28.048 20.536L28.84 19.84ZM29.248 17.032H29.536L29.788 16.984L30.592 17.512C29.68 19.852 27.868 21.952 26.08 23.08C25.948 22.696 25.612 21.988 25.396 21.712C27.028 20.824 28.612 19.06 29.248 17.296V17.032ZM44.572 16.78C44.404 18.004 44.164 19.408 43.744 20.824C43.024 23.248 41.992 24.736 40.684 24.736C39.34 24.736 38.236 23.26 38.236 21.232C38.236 18.472 40.648 16.096 43.756 16.096C46.72 16.096 48.604 18.16 48.604 20.788C48.604 23.308 47.056 25.096 44.032 25.564L43.12 24.148C43.588 24.088 43.924 24.028 44.248 23.956C45.772 23.584 46.972 22.492 46.972 20.728C46.972 18.844 45.796 17.5 43.72 17.5C41.176 17.5 39.784 19.576 39.784 21.088C39.784 22.3 40.264 22.888 40.72 22.888C41.236 22.888 41.692 22.12 42.196 20.5C42.544 19.372 42.808 17.992 42.928 16.732L44.572 16.78ZM58.696 19.708C58.696 22.672 57.976 24.484 55.072 25.768L53.788 24.556C56.116 23.752 57.124 22.708 57.124 19.756V16.564C57.124 16.084 57.1 15.688 57.052 15.46H58.768C58.744 15.7 58.696 16.084 58.696 16.564V19.708ZM54.352 15.556C54.328 15.784 54.28 16.168 54.28 16.648V20.932C54.28 21.472 54.316 21.964 54.34 22.192H52.66C52.684 21.964 52.72 21.472 52.72 20.932V16.636C52.72 16.3 52.696 15.928 52.648 15.556H54.352ZM50.404 17.716C50.62 17.752 51.112 17.836 51.7 17.836H59.572C60.208 17.836 60.568 17.8 60.904 17.752V19.348C60.64 19.312 60.208 19.312 59.584 19.312H51.7C51.1 19.312 50.68 19.336 50.404 19.348V17.716ZM62.704 20.344C64.852 19.792 66.604 19.012 67.948 18.184C69.172 17.428 70.54 16.228 71.32 15.28L72.616 16.504C71.524 17.608 70.06 18.736 68.644 19.588C67.288 20.392 65.344 21.292 63.448 21.856L62.704 20.344ZM67.696 18.964L69.4 18.556V23.968C69.4 24.496 69.424 25.24 69.508 25.54H67.6C67.648 25.252 67.696 24.496 67.696 23.968V18.964ZM77.956 23.86C77.956 22.936 77.956 17.968 77.956 16.96C77.956 16.528 77.92 15.94 77.836 15.508H79.708C79.66 15.94 79.6 16.456 79.6 16.96C79.6 18.28 79.612 22.972 79.612 23.86C79.612 24.196 79.66 25.036 79.72 25.528H77.836C77.92 25.06 77.956 24.328 77.956 23.86ZM79.252 18.616C80.848 19.06 83.44 20.008 84.616 20.584L83.944 22.252C82.576 21.544 80.56 20.776 79.252 20.344V18.616ZM91.888 15.616C91.816 15.928 91.744 16.312 91.684 16.612C91.564 17.152 91.42 17.896 91.288 18.508C90.892 20.2 89.932 23.62 88.672 25.648L87.1 25.024C88.528 23.104 89.428 19.936 89.764 18.424C89.992 17.344 90.124 16.324 90.112 15.424L91.888 15.616ZM96.028 16.816C96.76 17.86 97.768 20.092 98.14 21.232L96.616 21.94C96.304 20.608 95.452 18.496 94.588 17.428L96.028 16.816ZM87.028 18.076C87.46 18.1 87.868 18.088 88.312 18.076C89.272 18.052 91.552 17.788 92.44 17.788C93.712 17.788 94.612 18.352 94.612 20.092C94.612 21.508 94.432 23.452 93.928 24.484C93.532 25.324 92.86 25.588 91.96 25.588C91.492 25.588 90.928 25.516 90.52 25.42L90.256 23.836C90.724 23.968 91.408 24.088 91.72 24.088C92.128 24.088 92.44 23.968 92.62 23.572C92.956 22.9 93.112 21.436 93.112 20.26C93.112 19.3 92.704 19.156 91.948 19.156C91.24 19.156 89.164 19.42 88.504 19.504C88.156 19.552 87.532 19.636 87.172 19.696L87.028 18.076ZM95.812 15.16C96.112 15.592 96.532 16.36 96.76 16.804L95.8 17.212C95.548 16.72 95.176 16.012 94.852 15.544L95.812 15.16ZM97.228 14.608C97.54 15.064 97.984 15.832 98.2 16.252L97.24 16.66C97 16.156 96.604 15.46 96.28 15.004L97.228 14.608ZM101.788 16.432C101.704 16.852 101.644 17.56 101.644 17.896C101.644 18.676 101.644 19.564 101.716 20.44C101.884 22.168 102.244 23.356 103 23.356C103.576 23.356 104.044 21.94 104.272 20.992L105.484 22.444C104.68 24.544 103.936 25.264 102.976 25.264C101.644 25.264 100.504 24.088 100.168 20.872C100.048 19.768 100.036 18.352 100.036 17.62C100.036 17.296 100.024 16.78 99.94 16.408L101.788 16.432ZM107.788 16.696C108.928 18.076 109.852 21.076 109.984 22.912L108.4 23.536C108.22 21.592 107.572 18.688 106.264 17.2L107.788 16.696ZM114.028 16.432C113.944 16.852 113.884 17.56 113.884 17.896C113.884 18.676 113.884 19.564 113.956 20.44C114.124 22.168 114.484 23.356 115.24 23.356C115.816 23.356 116.284 21.94 116.512 20.992L117.724 22.444C116.92 24.544 116.176 25.264 115.216 25.264C113.884 25.264 112.744 24.088 112.408 20.872C112.288 19.768 112.276 18.352 112.276 17.62C112.276 17.296 112.264 16.78 112.18 16.408L114.028 16.432ZM120.028 16.696C121.168 18.076 122.092 21.076 122.224 22.912L120.64 23.536C120.46 21.592 119.812 18.688 118.504 17.2L120.028 16.696ZM124.144 17.14C124.66 17.2 125.308 17.224 125.74 17.224C127.228 17.224 128.848 16.972 130.012 16.6L130.048 17.992C129.016 18.28 127.288 18.592 125.752 18.58C125.272 18.58 124.768 18.568 124.252 18.544L124.144 17.14ZM128.812 15.34C128.656 15.976 128.368 17.152 128.044 18.172C127.492 19.9 126.412 22.132 125.392 23.548L123.94 22.804C125.02 21.484 126.1 19.384 126.568 18.088C126.856 17.224 127.12 16.108 127.156 15.184L128.812 15.34ZM131.632 19.084C131.596 19.588 131.608 20.092 131.62 20.62C131.644 21.328 131.752 23.116 131.752 23.788C131.752 24.904 131.152 25.78 129.436 25.78C127.948 25.78 126.772 25.108 126.772 23.788C126.772 22.624 127.756 21.712 129.424 21.712C131.524 21.712 133.18 22.768 134.176 23.668L133.384 24.964C132.52 24.16 131.152 22.924 129.34 22.924C128.644 22.924 128.188 23.224 128.188 23.644C128.188 24.088 128.572 24.4 129.232 24.4C130.048 24.4 130.312 23.944 130.312 23.272C130.312 22.552 130.18 20.344 130.12 19.084H131.632ZM133.696 19.72C133 19.156 131.632 18.376 130.804 18.004L131.584 16.828C132.448 17.2 133.924 18.004 134.548 18.448L133.696 19.72ZM137.104 19.924C137.464 19.864 138.016 19.72 138.376 19.6C139.204 19.36 141.232 18.664 142.684 18.664C144.592 18.664 145.864 19.792 145.864 21.616C145.864 23.776 143.944 25.264 140.14 25.492L139.504 24.016C142.24 23.944 144.268 23.212 144.268 21.58C144.268 20.692 143.596 20.056 142.54 20.056C141.148 20.056 138.76 21.052 137.728 21.484L137.104 19.924ZM147.894 16.756C148.362 16.744 148.842 16.72 149.07 16.696C150.078 16.6 152.046 16.432 154.254 16.24C155.49 16.132 156.798 16.06 157.65 16.024L157.662 17.572C157.014 17.572 155.982 17.584 155.334 17.728C153.894 18.112 152.802 19.672 152.802 21.088C152.802 23.068 154.65 23.776 156.678 23.884L156.126 25.528C153.606 25.372 151.23 24.016 151.23 21.412C151.23 19.684 152.202 18.328 153.018 17.716C151.89 17.836 149.442 18.088 148.05 18.4L147.894 16.756ZM162.666 22.192H164.118V24.148C164.118 24.508 164.226 24.544 164.814 24.544C165.078 24.544 166.182 24.544 166.53 24.544C167.034 24.544 167.118 24.376 167.19 23.176C167.49 23.392 168.102 23.62 168.498 23.704C168.33 25.42 167.922 25.852 166.65 25.852C166.314 25.852 164.958 25.852 164.646 25.852C163.05 25.852 162.666 25.444 162.666 24.16V22.192ZM163.854 21.82L164.802 20.932C165.654 21.352 166.71 22.024 167.226 22.564L166.194 23.548C165.726 23.02 164.706 22.288 163.854 21.82ZM168.03 22.336L169.314 21.808C169.974 22.696 170.658 23.872 170.898 24.724L169.494 25.312C169.29 24.508 168.666 23.272 168.03 22.336ZM160.974 21.88L162.27 22.348C161.994 23.38 161.574 24.592 160.998 25.396L159.714 24.676C160.266 23.956 160.722 22.864 160.974 21.88ZM162.27 18.748V19.78H168.126V18.748H162.27ZM162.27 16.564V17.584H168.126V16.564H162.27ZM160.914 15.316H169.554V21.028H160.914V15.316ZM164.526 15.868H165.93V20.512H164.526V15.868ZM173.226 19.924C173.586 19.864 174.138 19.72 174.498 19.6C175.326 19.36 177.354 18.664 178.806 18.664C180.714 18.664 181.986 19.792 181.986 21.616C181.986 23.776 180.066 25.264 176.262 25.492L175.626 24.016C178.362 23.944 180.39 23.212 180.39 21.58C180.39 20.692 179.718 20.056 178.662 20.056C177.27 20.056 174.882 21.052 173.85 21.484L173.226 19.924ZM184.017 16.756C184.485 16.744 184.965 16.72 185.193 16.696C186.201 16.6 188.169 16.432 190.377 16.24C191.613 16.132 192.921 16.06 193.773 16.024L193.785 17.572C193.137 17.572 192.105 17.584 191.457 17.728C190.017 18.112 188.925 19.672 188.925 21.088C188.925 23.068 190.773 23.776 192.801 23.884L192.249 25.528C189.729 25.372 187.353 24.016 187.353 21.412C187.353 19.684 188.325 18.328 189.141 17.716C188.013 17.836 185.565 18.088 184.173 18.4L184.017 16.756ZM13.852 32.756C14.32 32.744 14.8 32.72 15.028 32.696C16.036 32.6 18.004 32.432 20.212 32.24C21.448 32.132 22.756 32.06 23.608 32.024L23.62 33.572C22.972 33.572 21.94 33.584 21.292 33.728C19.852 34.112 18.76 35.672 18.76 37.088C18.76 39.068 20.608 39.776 22.636 39.884L22.084 41.528C19.564 41.372 17.188 40.016 17.188 37.412C17.188 35.684 18.16 34.328 18.976 33.716C17.848 33.836 15.4 34.088 14.008 34.4L13.852 32.756ZM27.7023 41.828C26.9703 40.94 25.9503 39.908 25.1103 39.188L26.3703 38.108C27.2223 38.804 28.3743 39.98 28.9863 40.724L27.7023 41.828ZM39.4863 31.988H40.9023V42.056H39.4863V31.988ZM37.3983 34.304H42.7143V35.672H37.3983V34.304ZM39.4983 34.892L40.3743 35.312C39.8223 37.016 38.8383 39.188 37.8183 40.388C37.6863 39.98 37.3503 39.368 37.1103 38.996C38.0583 38.012 39.0423 36.212 39.4983 34.892ZM41.7423 30.86L42.7503 31.94C41.3343 32.504 39.4143 32.9 37.7343 33.116C37.6743 32.804 37.4823 32.312 37.3263 32.012C38.9103 31.76 40.6743 31.34 41.7423 30.86ZM40.8303 35.912C41.2143 36.212 42.4863 37.52 42.7743 37.832L41.9223 38.912C41.5143 38.276 40.5663 37.1 40.0863 36.56L40.8303 35.912ZM44.1903 31.076L45.8343 31.34C45.3903 34.568 44.5983 38.348 43.8783 40.82L42.4863 40.532C43.1823 38.024 43.9023 34.136 44.1903 31.076ZM41.5023 40.148C42.9663 40.028 45.3183 39.788 47.5383 39.536L47.5743 40.856C45.5583 41.168 43.4223 41.468 41.8383 41.672L41.5023 40.148ZM45.6063 37.064L46.9863 36.668C47.7063 38.252 48.4023 40.28 48.5943 41.612L47.0703 42.08C46.9143 40.784 46.2903 38.696 45.6063 37.064ZM54.7503 31.388C54.6423 31.832 54.5943 32.144 54.5343 32.456C54.3903 33.488 53.8263 37.448 53.8263 38.66C53.8263 39.656 54.4263 40.196 55.6023 40.196C57.2823 40.196 58.2063 39.416 58.2063 38.432C58.2063 37.628 57.7503 36.848 56.9703 36.116L58.6503 35.756C59.4543 36.764 59.8143 37.604 59.8143 38.624C59.8143 40.436 58.1943 41.744 55.5663 41.744C53.6703 41.744 52.3383 40.928 52.3383 38.912C52.3383 37.688 52.9143 34.04 53.0343 32.36C53.0823 31.808 53.0823 31.568 53.0583 31.292L54.7503 31.388ZM50.4663 32.876C51.5103 33.224 52.9983 33.38 54.2223 33.38C55.1463 33.38 55.9983 33.32 56.5983 33.212L56.5503 34.652C55.8423 34.724 55.1823 34.76 54.1743 34.76C52.9623 34.76 51.4983 34.568 50.3943 34.256L50.4663 32.876ZM50.2023 35.852C51.4983 36.296 52.8903 36.392 54.1023 36.392C54.8343 36.392 55.7223 36.344 56.5023 36.248L56.4663 37.676C55.8063 37.748 55.0983 37.784 54.3423 37.784C52.7463 37.784 51.2223 37.616 50.1303 37.304L50.2023 35.852ZM65.3343 31.988H72.9903V33.296H65.3343V31.988ZM66.9063 35.312V36.5H71.2863V35.312H66.9063ZM65.5983 34.136H72.6663V37.676H65.5983V34.136ZM66.7263 37.796C67.7943 39.524 70.0623 40.496 73.1703 40.784C72.8703 41.096 72.5103 41.672 72.3303 42.068C69.0783 41.624 66.8583 40.412 65.5503 38.156L66.7263 37.796ZM68.3703 30.884H69.7863V36.368C69.7863 38.816 69.1743 41.048 65.7303 42.08C65.5623 41.756 65.1423 41.18 64.8303 40.88C68.0583 40.16 68.3703 38.324 68.3703 36.356V30.884ZM64.4223 30.776L65.7663 31.208C64.9503 33.248 63.6303 35.396 62.2623 36.752C62.1423 36.416 61.7583 35.624 61.5183 35.276C62.6583 34.196 63.7743 32.492 64.4223 30.776ZM63.2583 34.124L64.6143 32.756L64.6263 32.768V42.104H63.2583V34.124ZM75.3063 35.924C75.6663 35.864 76.2183 35.72 76.5783 35.6C77.4063 35.36 79.4343 34.664 80.8863 34.664C82.7943 34.664 84.0663 35.792 84.0663 37.616C84.0663 39.776 82.1463 41.264 78.3423 41.492L77.7063 40.016C80.4423 39.944 82.4703 39.212 82.4703 37.58C82.4703 36.692 81.7983 36.056 80.7423 36.056C79.3503 36.056 76.9623 37.052 75.9303 37.484L75.3063 35.924ZM86.0967 32.756C86.5647 32.744 87.0447 32.72 87.2727 32.696C88.2807 32.6 90.2487 32.432 92.4567 32.24C93.6927 32.132 95.0007 32.06 95.8527 32.024L95.8647 33.572C95.2167 33.572 94.1847 33.584 93.5367 33.728C92.0967 34.112 91.0047 35.672 91.0047 37.088C91.0047 39.068 92.8527 39.776 94.8807 39.884L94.3287 41.528C91.8087 41.372 89.4327 40.016 89.4327 37.412C89.4327 35.684 90.4047 34.328 91.2207 33.716C90.0927 33.836 87.6447 34.088 86.2527 34.4L86.0967 32.756ZM100.593 32.432C100.509 32.852 100.449 33.56 100.449 33.896C100.449 34.676 100.449 35.564 100.521 36.44C100.689 38.168 101.049 39.356 101.805 39.356C102.381 39.356 102.849 37.94 103.077 36.992L104.289 38.444C103.485 40.544 102.741 41.264 101.781 41.264C100.449 41.264 99.3087 40.088 98.9727 36.872C98.8527 35.768 98.8407 34.352 98.8407 33.62C98.8407 33.296 98.8287 32.78 98.7447 32.408L100.593 32.432ZM106.593 32.696C107.733 34.076 108.657 37.076 108.789 38.912L107.205 39.536C107.025 37.592 106.377 34.688 105.069 33.2L106.593 32.696ZM116.889 31.304C116.853 31.544 116.817 31.844 116.805 32.156C116.781 32.768 116.769 34.472 116.769 35.48C116.769 36.8 116.961 38.972 116.961 39.92C116.961 40.952 116.181 41.744 114.609 41.744C112.689 41.744 111.681 41.012 111.681 39.74C111.681 38.528 112.797 37.676 114.633 37.676C117.273 37.676 119.241 38.972 120.237 39.812L119.373 41.156C118.233 40.076 116.493 38.912 114.441 38.912C113.601 38.912 113.133 39.236 113.133 39.656C113.133 40.112 113.553 40.388 114.381 40.388C115.017 40.388 115.449 40.208 115.449 39.512C115.449 38.792 115.317 36.644 115.317 35.48C115.317 34.328 115.329 32.804 115.329 32.12C115.329 31.904 115.305 31.532 115.257 31.304H116.889ZM111.909 32.42C112.761 32.564 114.141 32.684 114.873 32.684C116.505 32.684 118.077 32.6 119.829 32.324L119.817 33.692C118.593 33.86 116.685 34.004 114.885 34.004C114.117 34.004 112.725 33.896 111.933 33.8L111.909 32.42ZM111.837 35.012C112.629 35.156 114.093 35.24 114.729 35.24C116.949 35.24 118.497 35.096 119.973 34.904L119.961 36.32C118.305 36.512 116.997 36.584 114.717 36.584C114.009 36.584 112.653 36.524 111.861 36.428L111.837 35.012ZM129.801 31.328C129.765 31.532 129.729 32.168 129.717 32.36C129.681 33.152 129.705 35.6 129.717 36.56L128.217 36.056C128.217 35.312 128.217 33.008 128.169 32.372C128.133 31.892 128.085 31.484 128.061 31.328H129.801ZM123.009 32.828C124.797 32.828 127.965 32.732 129.465 32.732C130.689 32.732 132.513 32.72 133.185 32.732L133.161 34.148C132.417 34.112 131.193 34.076 129.429 34.076C127.245 34.076 124.857 34.172 123.045 34.268L123.009 32.828ZM129.513 36.38C129.513 38.336 128.793 39.308 127.413 39.308C126.489 39.308 125.337 38.576 125.337 37.112C125.337 35.756 126.441 34.868 127.737 34.868C129.321 34.868 130.149 36.032 130.149 37.52C130.149 39.092 129.225 41.072 126.297 41.9L125.025 40.628C127.065 40.184 128.661 39.38 128.661 37.28C128.661 36.5 128.241 36.128 127.713 36.128C127.245 36.128 126.777 36.452 126.777 37.088C126.777 37.628 127.221 37.976 127.713 37.976C128.277 37.976 128.769 37.496 128.385 36.068L129.513 36.38ZM135.325 38.036C136.405 38.036 137.269 38.9 137.269 39.968C137.269 41.048 136.405 41.912 135.325 41.912C134.257 41.912 133.381 41.048 133.381 39.968C133.381 38.9 134.257 38.036 135.325 38.036ZM135.325 41.048C135.925 41.048 136.405 40.568 136.405 39.968C136.405 39.38 135.925 38.9 135.325 38.9C134.737 38.9 134.245 39.38 134.245 39.968C134.245 40.568 134.737 41.048 135.325 41.048ZM21.2748 47.568C21.1908 47.892 21.0708 48.432 21.0108 48.696C20.8428 49.512 20.5548 50.988 20.2308 52.2C19.7988 53.88 18.9948 56.34 18.3348 57.756L16.6548 57.192C17.3748 55.992 18.2868 53.472 18.7308 51.792C19.0428 50.664 19.3188 49.356 19.4028 48.636C19.4628 48.192 19.4748 47.7 19.4388 47.424L21.2748 47.568ZM18.2148 49.356C19.6788 49.356 21.3708 49.14 22.9308 48.768V50.268C21.4428 50.616 19.5588 50.808 18.2028 50.808C17.6148 50.808 17.1708 50.784 16.7508 50.76L16.7028 49.272C17.3268 49.344 17.7228 49.356 18.2148 49.356ZM21.9828 51.204C22.6548 51.132 23.5068 51.072 24.2988 51.072C24.9828 51.072 25.7028 51.108 26.3988 51.18L26.3748 52.62C25.7628 52.548 25.0308 52.476 24.3108 52.476C23.4708 52.476 22.7387 52.512 21.9828 52.608V51.204ZM22.6308 54.216C22.5468 54.552 22.4748 54.948 22.4748 55.212C22.4748 55.74 22.8228 56.136 24.1188 56.136C24.9108 56.136 25.7508 56.04 26.6028 55.884L26.5428 57.42C25.8708 57.504 25.0668 57.6 24.1068 57.6C22.0788 57.6 20.9988 56.892 20.9988 55.68C20.9988 55.128 21.0948 54.552 21.2028 54.072L22.6308 54.216ZM25.1148 47.916C25.4268 48.348 25.8468 49.116 26.0748 49.56L25.1148 49.968C24.8628 49.476 24.4908 48.768 24.1668 48.3L25.1148 47.916ZM26.5428 47.364C26.8548 47.82 27.2988 48.576 27.5148 49.008L26.5548 49.416C26.3148 48.912 25.9188 48.216 25.5948 47.76L26.5428 47.364ZM33.7307 47.532C33.6587 47.844 33.5867 48.228 33.5147 48.528C33.4067 49.068 33.2507 49.812 33.1307 50.424C32.7347 52.116 31.7627 55.536 30.5147 57.564L28.9427 56.94C30.3707 55.02 31.2707 51.852 31.6067 50.34C31.8347 49.26 31.9667 48.24 31.9547 47.34L33.7307 47.532ZM37.8708 48.648C38.6028 49.692 39.6107 51.972 39.9828 53.124L38.4587 53.832C38.1468 52.488 37.2947 50.328 36.4308 49.26L37.8708 48.648ZM28.8707 49.992C29.3027 50.016 29.7107 50.004 30.1547 49.992C31.1147 49.968 33.3827 49.704 34.2827 49.704C35.5428 49.704 36.4427 50.268 36.4427 52.008C36.4427 53.424 36.2747 55.368 35.7708 56.4C35.3627 57.24 34.7028 57.504 33.8027 57.504C33.3347 57.504 32.7707 57.432 32.3507 57.336L32.0987 55.752C32.5667 55.884 33.2507 56.004 33.5627 56.004C33.9707 56.004 34.2708 55.884 34.4627 55.488C34.7987 54.816 34.9547 53.352 34.9547 52.176C34.9547 51.216 34.5347 51.072 33.7907 51.072C33.0707 51.072 31.0067 51.336 30.3467 51.42C29.9987 51.468 29.3747 51.552 29.0147 51.612L28.8707 49.992ZM44.4347 47.34C45.5747 47.7 48.1907 48.168 49.2467 48.276L48.8867 49.752C47.6628 49.584 44.9987 49.032 44.0627 48.792L44.4347 47.34ZM44.5187 49.752C44.3507 50.424 44.1467 51.876 44.0627 52.572C45.1427 51.78 46.3427 51.42 47.6027 51.42C49.7027 51.42 50.9267 52.716 50.9267 54.168C50.9267 56.364 49.1867 58.044 44.2067 57.612L43.7387 56.04C47.3507 56.544 49.2467 55.668 49.2467 54.132C49.2467 53.352 48.5147 52.788 47.4587 52.788C46.1027 52.788 44.8907 53.292 44.1347 54.204C43.9187 54.456 43.7867 54.648 43.6907 54.888L42.2987 54.552C42.5387 53.376 42.8267 51.024 42.8987 49.536L44.5187 49.752ZM56.2067 48.288V48.852H61.2227V48.288H56.2067ZM54.8507 47.436H62.6507V49.704H54.8507V47.436ZM57.9587 46.812H59.3867V50.604H57.9587V46.812ZM53.2427 50.136H64.1147V51.204H53.2427V50.136ZM56.1347 53.676V54.168H61.3187V53.676H56.1347ZM56.1347 54.936V55.428H61.3187V54.936H56.1347ZM56.1347 52.428V52.908H61.3187V52.428H56.1347ZM54.7427 51.612H62.7827V56.244H54.7427V51.612ZM59.3387 56.82L60.5747 56.136C61.8227 56.532 63.2987 57.072 64.1507 57.432L62.4107 58.08C61.7507 57.732 60.5387 57.216 59.3387 56.82ZM56.6987 56.1L57.9827 56.688C56.9987 57.276 55.4507 57.816 54.2267 58.128C53.9867 57.84 53.4947 57.324 53.1827 57.084C54.4547 56.88 55.8827 56.52 56.6987 56.1ZM69.8268 56.328H76.6668V57.744H69.8268V56.328ZM70.3188 50.532H76.3788V51.912H70.3188V50.532ZM72.6108 46.932H74.0868V57.012H72.6108V46.932ZM65.5188 49.032H69.4548V50.34H65.5188V49.032ZM67.2348 53.136L68.6628 51.432V58.092H67.2348V53.136ZM67.2348 46.824H68.6628V49.644H67.2348V46.824ZM68.5188 51.84C68.9388 52.128 70.2948 53.328 70.6188 53.628L69.7428 54.792C69.2748 54.168 68.2668 53.064 67.7268 52.536L68.5188 51.84ZM68.9268 49.032H69.2148L69.4668 48.984L70.2708 49.512C69.3588 51.852 67.5468 53.952 65.7588 55.08C65.6268 54.696 65.2908 53.988 65.0748 53.712C66.7068 52.824 68.2908 51.06 68.9268 49.296V49.032ZM84.2508 48.78C84.0828 50.004 83.8428 51.408 83.4228 52.824C82.7028 55.248 81.6708 56.736 80.3628 56.736C79.0188 56.736 77.9148 55.26 77.9148 53.232C77.9148 50.472 80.3268 48.096 83.4348 48.096C86.3988 48.096 88.2828 50.16 88.2828 52.788C88.2828 55.308 86.7348 57.096 83.7108 57.564L82.7988 56.148C83.2668 56.088 83.6028 56.028 83.9268 55.956C85.4508 55.584 86.6508 54.492 86.6508 52.728C86.6508 50.844 85.4748 49.5 83.3988 49.5C80.8548 49.5 79.4628 51.576 79.4628 53.088C79.4628 54.3 79.9428 54.888 80.3988 54.888C80.9148 54.888 81.3708 54.12 81.8748 52.5C82.2228 51.372 82.4868 49.992 82.6068 48.732L84.2508 48.78ZM97.1028 47.808H98.4468V54.588H97.1028V47.808ZM99.2628 47.016H100.655V56.376C100.655 57.156 100.499 57.54 100.055 57.792C99.6108 58.02 98.9148 58.068 97.9908 58.068C97.9308 57.66 97.7268 57.024 97.5468 56.604C98.1708 56.628 98.7948 56.628 99.0108 56.628C99.2028 56.628 99.2628 56.568 99.2628 56.376V47.016ZM92.5668 46.884H93.9348V58.068H92.5668V46.884ZM94.9908 52.776H96.2868V55.848C96.2868 56.412 96.2148 56.748 95.8548 56.964C95.5068 57.168 95.0508 57.192 94.4508 57.18C94.4148 56.82 94.2588 56.304 94.1028 55.956C94.4268 55.968 94.7388 55.968 94.8468 55.968C94.9548 55.968 94.9908 55.944 94.9908 55.824V52.776ZM90.2988 52.776H95.5068V54.06H91.5828V57.12H90.2988V52.776ZM89.8308 50.616H96.5748V51.912H89.8308V50.616ZM91.0908 48.408H96.1068V49.716H90.8268L91.0908 48.408ZM90.7548 47.04L92.0748 47.304C91.8108 48.564 91.3548 49.872 90.8988 50.7C90.6108 50.532 89.9868 50.292 89.6508 50.172C90.1428 49.392 90.5388 48.18 90.7548 47.04ZM107.543 48.768H113.303V50.136H106.871L107.543 48.768ZM109.127 51.408H112.991V52.716H109.127V51.408ZM109.115 54.06H113.147V55.404H109.115V54.06ZM108.395 49.224H109.871V58.08H108.395V49.224ZM107.819 46.92L109.211 47.292C108.539 49.236 107.459 51.228 106.355 52.476C106.127 52.212 105.575 51.696 105.263 51.468C106.319 50.388 107.267 48.66 107.819 46.92ZM104.651 46.86L106.043 47.304C105.263 49.344 104.003 51.54 102.683 52.908C102.551 52.548 102.143 51.732 101.891 51.372C102.995 50.28 104.039 48.576 104.651 46.86ZM103.439 50.172L104.879 48.72L104.891 48.732V58.068H103.439V50.172ZM119.243 48.612C120.719 48.816 123.119 48.756 124.403 48.6V50.148C122.939 50.292 120.755 50.292 119.255 50.148L119.243 48.612ZM120.203 53.736C120.107 54.144 120.059 54.432 120.059 54.744C120.059 55.284 120.527 55.608 121.751 55.608C122.819 55.608 123.707 55.512 124.751 55.284L124.787 56.904C124.007 57.06 123.035 57.144 121.679 57.144C119.615 57.144 118.619 56.4 118.619 55.176C118.619 54.696 118.691 54.228 118.835 53.616L120.203 53.736ZM117.395 47.808C117.311 48.06 117.155 48.672 117.107 48.888C116.939 49.68 116.519 52.08 116.519 53.28C116.519 53.52 116.531 53.82 116.567 54.06C116.747 53.652 116.939 53.244 117.119 52.836L117.863 53.424C117.515 54.432 117.119 55.728 116.999 56.364C116.963 56.544 116.927 56.808 116.927 56.928C116.939 57.06 116.939 57.264 116.951 57.432L115.571 57.516C115.331 56.7 115.103 55.236 115.103 53.604C115.103 51.792 115.463 49.776 115.595 48.84C115.643 48.516 115.703 48.06 115.715 47.676L117.395 47.808ZM131.699 46.788L132.923 47.112C132.443 48.468 131.615 49.752 130.667 50.556C130.487 50.304 130.043 49.812 129.779 49.584C130.619 48.924 131.327 47.904 131.699 46.788ZM134.351 46.824L135.743 47.136C135.395 47.796 135.023 48.432 134.735 48.864L133.619 48.564C133.883 48.072 134.195 47.34 134.351 46.824ZM131.735 50.808H137.039V51.636H131.735V50.808ZM130.439 53.628H134.783V54.78H130.439V53.628ZM131.735 49.476H137.039V50.304H131.735V49.476ZM133.703 48.492H134.987V52.56H133.703V48.492ZM134.867 54.6H136.823V55.632H134.555L134.867 54.6ZM136.319 54.6H137.627C137.627 54.6 137.603 54.924 137.579 55.104C137.435 56.628 137.267 57.36 136.955 57.672C136.703 57.924 136.427 58.02 136.031 58.044C135.707 58.08 135.131 58.092 134.519 58.056C134.495 57.696 134.339 57.204 134.135 56.88C134.675 56.928 135.239 56.94 135.467 56.94C135.659 56.94 135.791 56.916 135.887 56.832C136.079 56.664 136.211 56.088 136.319 54.756V54.6ZM131.951 54.06L133.379 54.048C133.175 56.196 132.371 57.396 130.655 58.128C130.499 57.852 130.019 57.312 129.743 57.084C131.231 56.58 131.867 55.656 131.951 54.06ZM132.095 48H137.387V48.996H131.195L132.095 48ZM131.099 49.14L132.335 48.06V52.656H131.099V49.14ZM131.099 52.152H137.507V53.172H131.099V52.152ZM126.359 52.848C127.343 52.62 128.819 52.224 130.199 51.816L130.391 53.112C129.131 53.508 127.763 53.916 126.683 54.228L126.359 52.848ZM126.551 49.092H130.223V50.412H126.551V49.092ZM127.823 46.824H129.143V56.556C129.143 57.228 129.023 57.6 128.651 57.816C128.291 58.044 127.775 58.092 126.995 58.092C126.959 57.732 126.791 57.144 126.623 56.748C127.055 56.772 127.475 56.772 127.619 56.76C127.763 56.76 127.823 56.724 127.823 56.556V46.824ZM134.447 53.628H135.707C135.539 54.468 135.323 55.44 135.143 56.088L133.931 55.908C134.111 55.284 134.315 54.384 134.447 53.628ZM144.491 55.884C146.591 55.56 148.103 54.708 148.103 52.836C148.103 51.9 147.347 51.036 146.147 51.036C144.611 51.036 143.327 51.912 142.151 53.148L142.163 51.456C143.591 50.1 145.115 49.632 146.399 49.632C148.235 49.632 149.699 50.94 149.699 52.86C149.699 55.296 148.175 56.736 145.199 57.324L144.491 55.884ZM141.767 50.664C141.227 50.724 140.087 50.88 139.295 50.988L139.139 49.44C139.475 49.452 139.751 49.452 140.183 49.428C140.939 49.392 142.475 49.164 143.015 48.984L143.495 49.608C143.291 49.884 142.919 50.472 142.715 50.784L142.019 53.04C141.491 53.808 140.423 55.416 139.787 56.292L138.851 54.972C139.607 54.036 141.047 52.128 141.647 51.192L141.671 50.88L141.767 50.664ZM141.623 48.348C141.623 48.012 141.635 47.652 141.563 47.28L143.315 47.328C143.111 48.288 142.715 51.432 142.715 53.58C142.715 54.552 142.715 55.572 142.787 56.688C142.799 56.904 142.847 57.348 142.871 57.612H141.227C141.251 57.36 141.263 56.916 141.263 56.724C141.275 55.56 141.287 54.756 141.323 53.256C141.359 52.188 141.623 48.828 141.623 48.348ZM154.931 47.364C154.763 47.952 154.511 49.188 154.439 49.86C155.015 48.936 156.071 47.916 157.415 47.916C159.083 47.916 160.379 49.56 160.379 52.2C160.379 55.596 158.303 57.204 155.123 57.792L154.211 56.4C156.887 55.992 158.759 55.104 158.759 52.2C158.759 50.352 158.135 49.32 157.139 49.32C155.723 49.32 154.475 51.456 154.427 53.028C154.403 53.364 154.415 53.748 154.475 54.3L152.999 54.408C152.927 53.94 152.855 53.208 152.855 52.404C152.855 51.276 153.011 49.8 153.191 48.552C153.239 48.108 153.275 47.628 153.287 47.304L154.931 47.364ZM168.515 47.424C168.431 47.76 168.323 48.3 168.263 48.564C168.095 49.38 167.795 50.844 167.471 52.068C167.039 53.748 166.235 56.196 165.575 57.624L163.907 57.06C164.615 55.848 165.527 53.34 165.983 51.66C166.283 50.532 166.559 49.212 166.643 48.504C166.703 48.06 166.715 47.568 166.679 47.28L168.515 47.424ZM165.455 49.224C166.919 49.224 168.611 48.996 170.171 48.624V50.124C168.683 50.472 166.799 50.676 165.443 50.676C164.855 50.676 164.411 50.652 163.991 50.628L163.943 49.128C164.567 49.2 164.963 49.224 165.455 49.224ZM169.223 51.06C169.895 50.988 170.759 50.94 171.539 50.94C172.223 50.94 172.943 50.976 173.639 51.048L173.615 52.488C173.003 52.416 172.271 52.332 171.551 52.332C170.723 52.332 169.979 52.368 169.223 52.464V51.06ZM169.871 54.072C169.787 54.42 169.715 54.804 169.715 55.068C169.715 55.596 170.063 55.992 171.359 55.992C172.163 55.992 172.991 55.908 173.843 55.752L173.783 57.276C173.111 57.372 172.307 57.444 171.347 57.444C169.319 57.444 168.239 56.76 168.239 55.548C168.239 54.984 168.347 54.408 168.443 53.94L169.871 54.072ZM178.187 48.432C178.103 48.852 178.043 49.56 178.043 49.896C178.043 50.676 178.043 51.564 178.115 52.44C178.283 54.168 178.643 55.356 179.399 55.356C179.975 55.356 180.443 53.94 180.671 52.992L181.883 54.444C181.079 56.544 180.335 57.264 179.375 57.264C178.043 57.264 176.903 56.088 176.567 52.872C176.447 51.768 176.435 50.352 176.435 49.62C176.435 49.296 176.423 48.78 176.339 48.408L178.187 48.432ZM184.187 48.696C185.327 50.076 186.251 53.076 186.383 54.912L184.799 55.536C184.619 53.592 183.971 50.688 182.663 49.2L184.187 48.696ZM22.996 66.004C22.624 66.22 22.24 66.436 21.796 66.652C21.052 67.024 19.552 67.732 18.448 68.44C17.452 69.088 16.78 69.784 16.78 70.612C16.78 71.476 17.62 71.944 19.288 71.944C20.512 71.944 22.132 71.752 23.2 71.5L23.188 73.228C22.156 73.396 20.896 73.528 19.336 73.528C16.936 73.528 15.124 72.856 15.124 70.792C15.124 69.268 16.24 68.2 17.668 67.264C18.808 66.508 20.32 65.764 21.052 65.344C21.508 65.08 21.844 64.876 22.156 64.624L22.996 66.004ZM16.96 63.436C17.536 65.032 18.292 66.472 18.856 67.48L17.488 68.272C16.828 67.18 16.108 65.608 15.448 64.06L16.96 63.436ZM28.624 70.192H30.076V72.148C30.076 72.508 30.184 72.544 30.772 72.544C31.036 72.544 32.14 72.544 32.488 72.544C32.992 72.544 33.076 72.376 33.148 71.176C33.448 71.392 34.06 71.62 34.456 71.704C34.288 73.42 33.88 73.852 32.608 73.852C32.272 73.852 30.916 73.852 30.604 73.852C29.008 73.852 28.624 73.444 28.624 72.16V70.192ZM29.812 69.82L30.76 68.932C31.612 69.352 32.668 70.024 33.184 70.564L32.152 71.548C31.684 71.02 30.664 70.288 29.812 69.82ZM33.988 70.336L35.272 69.808C35.932 70.696 36.616 71.872 36.856 72.724L35.452 73.312C35.248 72.508 34.624 71.272 33.988 70.336ZM26.932 69.88L28.228 70.348C27.952 71.38 27.532 72.592 26.956 73.396L25.672 72.676C26.224 71.956 26.68 70.864 26.932 69.88ZM28.228 66.748V67.78H34.084V66.748H28.228ZM28.228 64.564V65.584H34.084V64.564H28.228ZM26.872 63.316H35.512V69.028H26.872V63.316ZM30.484 63.868H31.888V68.512H30.484V63.868ZM40.588 64.432C40.504 64.852 40.444 65.56 40.444 65.896C40.444 66.676 40.444 67.564 40.516 68.44C40.684 70.168 41.044 71.356 41.8 71.356C42.376 71.356 42.844 69.94 43.072 68.992L44.284 70.444C43.48 72.544 42.736 73.264 41.776 73.264C40.444 73.264 39.304 72.088 38.968 68.872C38.848 67.768 38.836 66.352 38.836 65.62C38.836 65.296 38.824 64.78 38.74 64.408L40.588 64.432ZM46.588 64.696C47.728 66.076 48.652 69.076 48.784 70.912L47.2 71.536C47.02 69.592 46.372 66.688 45.064 65.2L46.588 64.696ZM56.884 63.304C56.848 63.544 56.812 63.844 56.8 64.156C56.776 64.768 56.764 66.472 56.764 67.48C56.764 68.8 56.956 70.972 56.956 71.92C56.956 72.952 56.176 73.744 54.604 73.744C52.684 73.744 51.676 73.012 51.676 71.74C51.676 70.528 52.792 69.676 54.628 69.676C57.268 69.676 59.236 70.972 60.232 71.812L59.368 73.156C58.228 72.076 56.488 70.912 54.436 70.912C53.596 70.912 53.128 71.236 53.128 71.656C53.128 72.112 53.548 72.388 54.376 72.388C55.012 72.388 55.444 72.208 55.444 71.512C55.444 70.792 55.312 68.644 55.312 67.48C55.312 66.328 55.324 64.804 55.324 64.12C55.324 63.904 55.3 63.532 55.252 63.304H56.884ZM51.904 64.42C52.756 64.564 54.136 64.684 54.868 64.684C56.5 64.684 58.072 64.6 59.824 64.324L59.812 65.692C58.588 65.86 56.68 66.004 54.88 66.004C54.112 66.004 52.72 65.896 51.928 65.8L51.904 64.42ZM51.832 67.012C52.624 67.156 54.088 67.24 54.724 67.24C56.944 67.24 58.492 67.096 59.968 66.904L59.956 68.32C58.3 68.512 56.992 68.584 54.712 68.584C54.004 68.584 52.648 68.524 51.856 68.428L51.832 67.012ZM66.412 63.484C66.34 63.988 66.28 64.612 66.256 65.092C66.196 66.388 66.112 69.064 66.112 70.552C66.112 71.764 66.832 72.16 67.768 72.16C69.748 72.16 70.996 71.02 71.872 69.712L72.964 71.044C72.184 72.196 70.48 73.792 67.744 73.792C65.776 73.792 64.516 72.928 64.516 70.876C64.516 69.268 64.624 66.124 64.624 65.092C64.624 64.516 64.576 63.94 64.48 63.472L66.412 63.484ZM79.876 63.424C79.792 63.76 79.684 64.3 79.624 64.564C79.456 65.38 79.156 66.844 78.832 68.068C78.4 69.748 77.596 72.196 76.936 73.624L75.268 73.06C75.976 71.848 76.888 69.34 77.344 67.66C77.644 66.532 77.92 65.212 78.004 64.504C78.064 64.06 78.076 63.568 78.04 63.28L79.876 63.424ZM76.816 65.224C78.28 65.224 79.972 64.996 81.532 64.624V66.124C80.044 66.472 78.16 66.676 76.804 66.676C76.216 66.676 75.772 66.652 75.352 66.628L75.304 65.128C75.928 65.2 76.324 65.224 76.816 65.224ZM80.584 67.06C81.256 66.988 82.12 66.94 82.9 66.94C83.584 66.94 84.304 66.976 85 67.048L84.976 68.488C84.364 68.416 83.632 68.332 82.912 68.332C82.084 68.332 81.34 68.368 80.584 68.464V67.06ZM81.232 70.072C81.148 70.42 81.076 70.804 81.076 71.068C81.076 71.596 81.424 71.992 82.72 71.992C83.524 71.992 84.352 71.908 85.204 71.752L85.144 73.276C84.472 73.372 83.668 73.444 82.708 73.444C80.68 73.444 79.6 72.76 79.6 71.548C79.6 70.984 79.708 70.408 79.804 69.94L81.232 70.072ZM88.756 70.036C89.836 70.036 90.7 70.9 90.7 71.968C90.7 73.048 89.836 73.912 88.756 73.912C87.688 73.912 86.812 73.048 86.812 71.968C86.812 70.9 87.688 70.036 88.756 70.036ZM88.756 73.048C89.356 73.048 89.836 72.568 89.836 71.968C89.836 71.38 89.356 70.9 88.756 70.9C88.168 70.9 87.676 71.38 87.676 71.968C87.676 72.568 88.168 73.048 88.756 73.048ZM20.164 79.304C20.128 79.544 20.092 79.844 20.08 80.156C20.056 80.768 20.044 82.472 20.044 83.48C20.044 84.8 20.236 86.972 20.236 87.92C20.236 88.952 19.456 89.744 17.884 89.744C15.964 89.744 14.956 89.012 14.956 87.74C14.956 86.528 16.072 85.676 17.908 85.676C20.548 85.676 22.516 86.972 23.512 87.812L22.648 89.156C21.508 88.076 19.768 86.912 17.716 86.912C16.876 86.912 16.408 87.236 16.408 87.656C16.408 88.112 16.828 88.388 17.656 88.388C18.292 88.388 18.724 88.208 18.724 87.512C18.724 86.792 18.592 84.644 18.592 83.48C18.592 82.328 18.604 80.804 18.604 80.12C18.604 79.904 18.58 79.532 18.532 79.304H20.164ZM15.184 80.42C16.036 80.564 17.416 80.684 18.148 80.684C19.78 80.684 21.352 80.6 23.104 80.324L23.092 81.692C21.868 81.86 19.96 82.004 18.16 82.004C17.392 82.004 16 81.896 15.208 81.8L15.184 80.42ZM15.112 83.012C15.904 83.156 17.368 83.24 18.004 83.24C20.224 83.24 21.772 83.096 23.248 82.904L23.236 84.32C21.58 84.512 20.272 84.584 17.992 84.584C17.284 84.584 15.928 84.524 15.136 84.428L15.112 83.012ZM30.916 79.424C30.832 79.76 30.724 80.3 30.664 80.564C30.496 81.38 30.196 82.844 29.872 84.068C29.44 85.748 28.636 88.196 27.976 89.624L26.308 89.06C27.016 87.848 27.928 85.34 28.384 83.66C28.684 82.532 28.96 81.212 29.044 80.504C29.104 80.06 29.116 79.568 29.08 79.28L30.916 79.424ZM27.856 81.224C29.32 81.224 31.012 80.996 32.572 80.624V82.124C31.084 82.472 29.2 82.676 27.844 82.676C27.256 82.676 26.812 82.652 26.392 82.628L26.344 81.128C26.968 81.2 27.364 81.224 27.856 81.224ZM31.624 83.06C32.296 82.988 33.16 82.94 33.94 82.94C34.624 82.94 35.344 82.976 36.04 83.048L36.016 84.488C35.404 84.416 34.672 84.332 33.952 84.332C33.124 84.332 32.38 84.368 31.624 84.464V83.06ZM32.272 86.072C32.188 86.42 32.116 86.804 32.116 87.068C32.116 87.596 32.464 87.992 33.76 87.992C34.564 87.992 35.392 87.908 36.244 87.752L36.184 89.276C35.512 89.372 34.708 89.444 33.748 89.444C31.72 89.444 30.64 88.76 30.64 87.548C30.64 86.984 30.748 86.408 30.844 85.94L32.272 86.072ZM40.54 89.828C39.808 88.94 38.788 87.908 37.948 87.188L39.208 86.108C40.06 86.804 41.212 87.98 41.824 88.724L40.54 89.828ZM53.248 80.288V80.852H58.264V80.288H53.248ZM51.892 79.436H59.692V81.704H51.892V79.436ZM55 78.812H56.428V82.604H55V78.812ZM50.284 82.136H61.156V83.204H50.284V82.136ZM53.176 85.676V86.168H58.36V85.676H53.176ZM53.176 86.936V87.428H58.36V86.936H53.176ZM53.176 84.428V84.908H58.36V84.428H53.176ZM51.784 83.612H59.824V88.244H51.784V83.612ZM56.38 88.82L57.616 88.136C58.864 88.532 60.34 89.072 61.192 89.432L59.452 90.08C58.792 89.732 57.58 89.216 56.38 88.82ZM53.74 88.1L55.024 88.688C54.04 89.276 52.492 89.816 51.268 90.128C51.028 89.84 50.536 89.324 50.224 89.084C51.496 88.88 52.924 88.52 53.74 88.1ZM66.868 88.328H73.708V89.744H66.868V88.328ZM67.36 82.532H73.42V83.912H67.36V82.532ZM69.652 78.932H71.128V89.012H69.652V78.932ZM62.56 81.032H66.496V82.34H62.56V81.032ZM64.276 85.136L65.704 83.432V90.092H64.276V85.136ZM64.276 78.824H65.704V81.644H64.276V78.824ZM65.56 83.84C65.98 84.128 67.336 85.328 67.66 85.628L66.784 86.792C66.316 86.168 65.308 85.064 64.768 84.536L65.56 83.84ZM65.968 81.032H66.256L66.508 80.984L67.312 81.512C66.4 83.852 64.588 85.952 62.8 87.08C62.668 86.696 62.332 85.988 62.116 85.712C63.748 84.824 65.332 83.06 65.968 81.296V81.032ZM79.648 79.616C79.576 79.928 79.504 80.312 79.444 80.612C79.324 81.152 79.18 81.896 79.048 82.508C78.652 84.2 77.692 87.62 76.432 89.648L74.86 89.024C76.288 87.104 77.188 83.936 77.524 82.424C77.752 81.344 77.884 80.324 77.872 79.424L79.648 79.616ZM83.788 80.816C84.52 81.86 85.528 84.092 85.9 85.232L84.376 85.94C84.064 84.608 83.212 82.496 82.348 81.428L83.788 80.816ZM74.788 82.076C75.22 82.1 75.628 82.088 76.072 82.076C77.032 82.052 79.312 81.788 80.2 81.788C81.472 81.788 82.372 82.352 82.372 84.092C82.372 85.508 82.192 87.452 81.688 88.484C81.292 89.324 80.62 89.588 79.72 89.588C79.252 89.588 78.688 89.516 78.28 89.42L78.016 87.836C78.484 87.968 79.168 88.088 79.48 88.088C79.888 88.088 80.2 87.968 80.38 87.572C80.716 86.9 80.872 85.436 80.872 84.26C80.872 83.3 80.464 83.156 79.708 83.156C79 83.156 76.924 83.42 76.264 83.504C75.916 83.552 75.292 83.636 74.932 83.696L74.788 82.076ZM83.572 79.16C83.872 79.592 84.292 80.36 84.52 80.804L83.56 81.212C83.308 80.72 82.936 80.012 82.612 79.544L83.572 79.16ZM84.988 78.608C85.3 79.064 85.744 79.832 85.96 80.252L85 80.66C84.76 80.156 84.364 79.46 84.04 79.004L84.988 78.608ZM90.892 79.484C90.82 79.988 90.76 80.612 90.736 81.092C90.676 82.388 90.592 85.064 90.592 86.552C90.592 87.764 91.312 88.16 92.248 88.16C94.228 88.16 95.476 87.02 96.352 85.712L97.444 87.044C96.664 88.196 94.96 89.792 92.224 89.792C90.256 89.792 88.996 88.928 88.996 86.876C88.996 85.268 89.104 82.124 89.104 81.092C89.104 80.516 89.056 79.94 88.96 79.472L90.892 79.484ZM99.1687 80.756C99.6367 80.744 100.117 80.72 100.345 80.696C101.353 80.6 103.321 80.432 105.529 80.24C106.765 80.132 108.073 80.06 108.925 80.024L108.937 81.572C108.289 81.572 107.257 81.584 106.609 81.728C105.169 82.112 104.077 83.672 104.077 85.088C104.077 87.068 105.925 87.776 107.953 87.884L107.401 89.528C104.881 89.372 102.505 88.016 102.505 85.412C102.505 83.684 103.477 82.328 104.293 81.716C103.165 81.836 100.717 82.088 99.3247 82.4L99.1687 80.756ZM113.665 80.432C113.581 80.852 113.521 81.56 113.521 81.896C113.521 82.676 113.521 83.564 113.593 84.44C113.761 86.168 114.121 87.356 114.877 87.356C115.453 87.356 115.921 85.94 116.149 84.992L117.361 86.444C116.557 88.544 115.813 89.264 114.853 89.264C113.521 89.264 112.381 88.088 112.045 84.872C111.925 83.768 111.913 82.352 111.913 81.62C111.913 81.296 111.901 80.78 111.817 80.408L113.665 80.432ZM119.665 80.696C120.805 82.076 121.729 85.076 121.861 86.912L120.277 87.536C120.097 85.592 119.449 82.688 118.141 81.2L119.665 80.696ZM125.437 79.868C125.773 79.904 126.181 79.928 126.517 79.928C127.165 79.928 129.721 79.868 130.405 79.808C130.909 79.772 131.185 79.724 131.329 79.676L132.097 80.756C131.821 80.936 131.533 81.104 131.269 81.308C130.621 81.764 129.361 82.82 128.593 83.42C129.001 83.312 129.361 83.288 129.733 83.288C131.773 83.288 133.321 84.56 133.321 86.3C133.321 88.196 131.881 89.696 128.977 89.696C127.309 89.696 126.049 88.94 126.049 87.728C126.049 86.756 126.937 85.868 128.209 85.868C129.853 85.868 130.765 86.972 130.801 88.292L129.397 88.472C129.373 87.608 128.917 87.008 128.209 87.008C127.765 87.008 127.465 87.284 127.465 87.596C127.465 88.04 127.957 88.34 128.689 88.34C130.717 88.34 131.749 87.572 131.749 86.288C131.749 85.196 130.669 84.464 129.265 84.464C127.417 84.464 126.229 85.448 124.945 86.9L123.853 85.772C124.705 85.1 126.157 83.876 126.853 83.288C127.525 82.736 128.785 81.728 129.373 81.2C128.761 81.224 127.105 81.284 126.457 81.332C126.133 81.356 125.761 81.38 125.485 81.428L125.437 79.868ZM142.177 82.784H146.653V84.116H142.177V82.784ZM135.673 80H141.073V81.176H135.673V80ZM135.553 84.776H141.061V85.988H135.553V84.776ZM135.517 82.676H141.169V83.864H135.517V82.676ZM144.121 83.36H145.513V90.02H144.121V83.36ZM137.677 78.908H139.081V80.528H137.677V78.908ZM137.677 83.792H139.081V90.068H137.677V83.792ZM141.529 79.76L143.209 80.228C143.197 80.348 143.113 80.408 142.897 80.444V83.972C142.897 85.76 142.669 88.412 141.037 90.104C140.857 89.792 140.329 89.3 140.005 89.12C141.397 87.644 141.529 85.592 141.529 83.948V79.76ZM145.453 78.932L146.605 79.976C145.381 80.528 143.749 80.936 142.345 81.2C142.273 80.888 142.069 80.384 141.901 80.108C143.185 79.82 144.601 79.388 145.453 78.932ZM138.973 86.036C139.345 86.264 140.497 87.164 140.785 87.404L139.957 88.436C139.561 87.956 138.649 87.056 138.205 86.66L138.973 86.036ZM136.273 81.356L137.377 81.092C137.593 81.524 137.761 82.112 137.821 82.508L136.645 82.82C136.621 82.424 136.465 81.812 136.273 81.356ZM139.261 81.068L140.533 81.308C140.305 81.86 140.101 82.376 139.921 82.748L138.781 82.508C138.949 82.1 139.153 81.488 139.261 81.068ZM137.689 85.484L138.709 85.856C138.121 87.176 137.125 88.556 136.165 89.336C135.937 89.024 135.517 88.544 135.217 88.316C136.165 87.704 137.161 86.54 137.689 85.484ZM151.729 79.484C151.657 79.988 151.597 80.612 151.573 81.092C151.513 82.388 151.429 85.064 151.429 86.552C151.429 87.764 152.149 88.16 153.085 88.16C155.065 88.16 156.313 87.02 157.189 85.712L158.281 87.044C157.501 88.196 155.797 89.792 153.061 89.792C151.093 89.792 149.833 88.928 149.833 86.876C149.833 85.268 149.941 82.124 149.941 81.092C149.941 80.516 149.893 79.94 149.797 79.472L151.729 79.484ZM162.625 80.432C162.541 80.852 162.481 81.56 162.481 81.896C162.481 82.676 162.481 83.564 162.553 84.44C162.721 86.168 163.081 87.356 163.837 87.356C164.413 87.356 164.881 85.94 165.109 84.992L166.321 86.444C165.517 88.544 164.773 89.264 163.813 89.264C162.481 89.264 161.341 88.088 161.005 84.872C160.885 83.768 160.873 82.352 160.873 81.62C160.873 81.296 160.861 80.78 160.777 80.408L162.625 80.432ZM168.625 80.696C169.765 82.076 170.689 85.076 170.821 86.912L169.237 87.536C169.057 85.592 168.409 82.688 167.101 81.2L168.625 80.696ZM181.393 80.204C181.393 80.588 181.705 80.9 182.089 80.9C182.473 80.9 182.785 80.588 182.785 80.204C182.785 79.82 182.473 79.508 182.089 79.508C181.705 79.508 181.393 79.82 181.393 80.204ZM180.649 80.204C180.649 79.412 181.297 78.764 182.089 78.764C182.881 78.764 183.529 79.412 183.529 80.204C183.529 80.996 182.881 81.644 182.089 81.644C181.297 81.644 180.649 80.996 180.649 80.204ZM182.113 81.152C181.993 81.38 181.909 81.728 181.849 81.98C181.573 83.156 181.045 85.028 180.037 86.36C178.957 87.8 177.361 88.988 175.213 89.672L173.905 88.232C176.293 87.68 177.649 86.636 178.609 85.424C179.413 84.428 179.869 83.06 180.025 82.028C179.293 82.028 175.333 82.028 174.433 82.028C173.881 82.028 173.317 82.064 173.005 82.088V80.384C173.365 80.432 174.037 80.492 174.433 80.492C175.333 80.492 179.317 80.492 179.989 80.492C180.229 80.492 180.613 80.48 180.925 80.396L182.113 81.152ZM185.509 80.492C185.989 80.504 186.445 80.516 186.769 80.516C187.645 80.516 192.517 80.516 193.381 80.516C193.681 80.516 194.125 80.516 194.569 80.504C194.545 80.864 194.545 81.296 194.545 81.668C194.545 82.4 194.545 86.816 194.545 87.548C194.545 88.016 194.557 89.168 194.569 89.216H192.901C192.901 89.168 192.937 88.232 192.937 87.572C192.937 86.876 192.937 82.052 192.937 82.052H187.129C187.129 82.052 187.129 86.864 187.129 87.572C187.129 88.148 187.141 89.156 187.141 89.216H185.497C185.497 89.156 185.521 88.1 185.521 87.524C185.521 86.804 185.521 82.364 185.521 81.668C185.521 81.32 185.521 80.84 185.509 80.492ZM193.525 87.032V88.556H186.313V87.032H193.525ZM21.748 95.796C22.084 96.3 22.576 97.092 22.84 97.644L21.808 98.1C21.448 97.344 21.184 96.828 20.74 96.204L21.748 95.796ZM23.404 95.208C23.776 95.688 24.244 96.48 24.532 97.008L23.5 97.464C23.116 96.708 22.828 96.24 22.384 95.64L23.404 95.208ZM16.54 95.556C17.332 95.988 18.652 96.84 19.276 97.272L18.376 98.604C17.716 98.136 16.456 97.32 15.664 96.876L16.54 95.556ZM14.32 104.076C15.652 103.848 17.092 103.452 18.4 102.732C20.44 101.592 22.108 99.948 23.068 98.232L23.992 99.864C22.876 101.52 21.184 103.044 19.216 104.172C18.004 104.868 16.276 105.468 15.22 105.66L14.32 104.076ZM14.692 98.292C15.496 98.724 16.816 99.552 17.428 99.984L16.552 101.328C15.868 100.86 14.632 100.044 13.816 99.624L14.692 98.292ZM27.592 98.508C27.856 98.544 28.288 98.568 28.552 98.568H34.036C34.336 98.568 34.684 98.544 34.972 98.508V100.008C34.672 99.984 34.312 99.972 34.036 99.972H28.552C28.288 99.972 27.856 99.984 27.592 100.008V98.508ZM30.412 104.64V99.324H31.984V104.64H30.412ZM26.992 103.752C27.292 103.8 27.664 103.824 27.976 103.824H34.6C34.936 103.824 35.26 103.788 35.512 103.752V105.324C35.26 105.288 34.816 105.276 34.6 105.276H27.976C27.676 105.276 27.304 105.288 26.992 105.324V103.752ZM48.268 97.548C48.136 97.776 47.968 98.1 47.872 98.4C47.548 99.48 46.864 101.076 45.772 102.408C44.632 103.8 43.192 104.904 40.936 105.792L39.52 104.532C41.968 103.788 43.3 102.744 44.356 101.556C45.172 100.62 45.868 99.18 46.06 98.292H42.016L42.568 96.924C43.096 96.924 45.616 96.924 45.988 96.924C46.36 96.924 46.768 96.876 47.032 96.78L48.268 97.548ZM44.356 95.64C44.068 96.06 43.756 96.612 43.624 96.864C42.808 98.316 41.38 100.008 39.652 101.184L38.308 100.188C40.408 98.904 41.464 97.356 42.052 96.324C42.232 96.036 42.484 95.484 42.592 95.064L44.356 95.64ZM53.476 103.86C53.476 102.936 53.476 97.968 53.476 96.96C53.476 96.528 53.44 95.94 53.356 95.508H55.228C55.18 95.94 55.12 96.456 55.12 96.96C55.12 98.28 55.132 102.972 55.132 103.86C55.132 104.196 55.18 105.036 55.24 105.528H53.356C53.44 105.06 53.476 104.328 53.476 103.86ZM54.772 98.616C56.368 99.06 58.96 100.008 60.136 100.584L59.464 102.252C58.096 101.544 56.08 100.776 54.772 100.344V98.616ZM67.324 96.612C68.8 96.816 71.2 96.756 72.484 96.6V98.148C71.02 98.292 68.836 98.292 67.336 98.148L67.324 96.612ZM68.284 101.736C68.188 102.144 68.14 102.432 68.14 102.744C68.14 103.284 68.608 103.608 69.832 103.608C70.9 103.608 71.788 103.512 72.832 103.284L72.868 104.904C72.088 105.06 71.116 105.144 69.76 105.144C67.696 105.144 66.7 104.4 66.7 103.176C66.7 102.696 66.772 102.228 66.916 101.616L68.284 101.736ZM65.476 95.808C65.392 96.06 65.236 96.672 65.188 96.888C65.02 97.68 64.6 100.08 64.6 101.28C64.6 101.52 64.612 101.82 64.648 102.06C64.828 101.652 65.02 101.244 65.2 100.836L65.944 101.424C65.596 102.432 65.2 103.728 65.08 104.364C65.044 104.544 65.008 104.808 65.008 104.928C65.02 105.06 65.02 105.264 65.032 105.432L63.652 105.516C63.412 104.7 63.184 103.236 63.184 101.604C63.184 99.792 63.544 97.776 63.676 96.84C63.724 96.516 63.784 96.06 63.796 95.676L65.476 95.808ZM76.9 98.988H83.428V100.32H76.9V98.988ZM76.9 101.556H83.428V102.888H76.9V101.556ZM76.9 104.136H83.428V105.468H76.9V104.136ZM75.916 96.372H84.64V106.044H83.104V97.752H77.38V106.068H75.916V96.372ZM79.324 94.8L81.064 94.98C80.776 95.784 80.428 96.576 80.164 97.104L78.844 96.864C79.036 96.264 79.24 95.424 79.324 94.8ZM88.768 99.216H95.26V100.62H88.768V99.216ZM94.792 99.216H96.304C96.304 99.216 96.292 99.66 96.28 99.84C96.148 103.488 96.004 104.916 95.584 105.408C95.284 105.816 94.948 105.924 94.492 105.996C94.072 106.056 93.376 106.044 92.668 106.02C92.644 105.6 92.452 104.976 92.188 104.568C92.86 104.628 93.484 104.64 93.784 104.64C94 104.64 94.132 104.604 94.264 104.472C94.552 104.16 94.684 102.816 94.792 99.48V99.216ZM90.124 94.968L91.684 95.424C90.784 97.512 89.32 99.444 87.808 100.632C87.532 100.32 86.908 99.744 86.56 99.468C88.072 98.472 89.404 96.792 90.124 94.968ZM94.696 94.944C95.452 96.468 96.964 98.22 98.284 99.228C97.888 99.54 97.336 100.128 97.06 100.536C95.704 99.288 94.228 97.344 93.28 95.508L94.696 94.944ZM90.916 99.624H92.476C92.248 102.324 91.732 104.832 88.156 106.164C87.976 105.768 87.556 105.156 87.22 104.844C90.436 103.788 90.724 101.76 90.916 99.624ZM105.772 96.78C105.604 98.004 105.364 99.408 104.944 100.824C104.224 103.248 103.192 104.736 101.884 104.736C100.54 104.736 99.436 103.26 99.436 101.232C99.436 98.472 101.848 96.096 104.956 96.096C107.92 96.096 109.804 98.16 109.804 100.788C109.804 103.308 108.256 105.096 105.232 105.564L104.32 104.148C104.788 104.088 105.124 104.028 105.448 103.956C106.972 103.584 108.172 102.492 108.172 100.728C108.172 98.844 106.996 97.5 104.92 97.5C102.376 97.5 100.984 99.576 100.984 101.088C100.984 102.3 101.464 102.888 101.92 102.888C102.436 102.888 102.892 102.12 103.396 100.5C103.744 99.372 104.008 97.992 104.128 96.732L105.772 96.78ZM120.916 96.876C120.82 97.008 120.604 97.368 120.496 97.62C120.004 98.76 119.116 100.392 118.084 101.592C116.74 103.14 114.928 104.628 113.068 105.504L111.82 104.208C113.764 103.488 115.612 102.024 116.74 100.776C117.532 99.876 118.264 98.688 118.54 97.836C118.036 97.836 114.976 97.836 114.46 97.836C113.968 97.836 113.308 97.896 113.044 97.92V96.204C113.368 96.252 114.112 96.288 114.46 96.288C115.096 96.288 118.168 96.288 118.696 96.288C119.224 96.288 119.692 96.228 119.944 96.144L120.916 96.876ZM118.24 100.596C119.476 101.604 121.18 103.392 121.96 104.352L120.592 105.54C119.704 104.304 118.396 102.876 117.112 101.712L118.24 100.596ZM127.528 96.432C127.456 96.096 127.372 95.808 127.276 95.532L128.98 95.256C129.004 95.484 129.052 95.892 129.1 96.18C129.22 96.972 130.408 103.044 130.66 104.268C130.744 104.616 130.852 105.048 130.96 105.444L129.232 105.744C129.172 105.3 129.148 104.892 129.064 104.532C128.884 103.452 127.72 97.404 127.528 96.432ZM124.252 97.968C124.624 97.944 124.984 97.92 125.368 97.872C126.388 97.752 130.588 97.104 131.668 96.888C132.04 96.828 132.496 96.72 132.784 96.636L133.084 98.22C132.82 98.232 132.328 98.304 131.968 98.352C130.696 98.556 126.568 99.216 125.668 99.372C125.296 99.444 124.984 99.516 124.576 99.624L124.252 97.968ZM124.264 101.484C124.576 101.472 125.128 101.412 125.5 101.352C126.784 101.172 131.164 100.464 132.544 100.2C133.012 100.116 133.456 100.008 133.78 99.924L134.092 101.508C133.768 101.532 133.276 101.616 132.832 101.688C131.308 101.916 126.988 102.624 125.8 102.852C125.284 102.948 124.864 103.02 124.6 103.092L124.264 101.484ZM141.424 104.736C141.484 104.508 141.52 104.184 141.52 103.86C141.52 103.224 141.52 97.836 141.52 96.864C141.52 96.324 141.436 95.856 141.436 95.832H143.212C143.212 95.856 143.128 96.336 143.128 96.876C143.128 97.836 143.128 102.408 143.128 103.14C144.112 102.72 145.288 101.772 146.104 100.608L147.016 101.94C146.02 103.236 144.304 104.532 142.948 105.216C142.696 105.348 142.552 105.48 142.432 105.564L141.424 104.736ZM135.868 104.568C136.936 103.824 137.584 102.72 137.908 101.688C138.256 100.668 138.268 98.388 138.268 96.948C138.268 96.456 138.22 96.144 138.148 95.844H139.912C139.912 95.892 139.828 96.432 139.828 96.924C139.828 98.352 139.792 100.884 139.48 102.096C139.108 103.44 138.364 104.628 137.332 105.54L135.868 104.568ZM153.472 95.376C153.376 95.82 153.22 96.528 152.884 97.392C152.632 97.98 152.284 98.664 151.948 99.144C152.272 99 152.908 98.916 153.316 98.916C154.312 98.916 155.068 99.504 155.068 100.62C155.068 101.268 155.104 102.576 155.116 103.332H153.676C153.724 102.768 153.748 101.748 153.736 101.1C153.736 100.332 153.256 100.08 152.752 100.08C152.092 100.08 151.336 100.476 150.88 100.908C150.52 101.268 150.184 101.7 149.776 102.228L148.492 101.268C150.028 99.852 150.952 98.556 151.456 97.236C151.696 96.588 151.852 95.856 151.888 95.244L153.472 95.376ZM148.948 96.492C149.56 96.576 150.448 96.624 151.06 96.624C152.644 96.624 154.816 96.54 156.556 96.228L156.544 97.62C154.852 97.86 152.44 97.968 150.976 97.968C150.484 97.968 149.608 97.944 148.948 97.884V96.492ZM158.452 99.9C158.08 100.008 157.432 100.248 157.024 100.404C156.244 100.704 155.164 101.136 154.036 101.712C152.944 102.276 152.356 102.792 152.356 103.452C152.356 104.112 152.932 104.292 154.096 104.292C155.116 104.292 156.46 104.16 157.516 103.944L157.468 105.492C156.664 105.6 155.2 105.708 154.06 105.708C152.188 105.708 150.784 105.24 150.784 103.692C150.784 102.024 152.5 101.04 153.94 100.32C155.044 99.744 155.8 99.456 156.52 99.12C156.988 98.916 157.408 98.724 157.864 98.496L158.452 99.9ZM164.584 101.208H170.872V106.02H169.504V102.516H165.892V106.068H164.584V101.208ZM169.924 94.812L171.028 95.94C169.264 96.612 166.828 96.984 164.704 97.176C164.644 96.828 164.452 96.264 164.296 95.94C166.336 95.736 168.592 95.34 169.924 94.812ZM167.044 96.156H168.412V101.964H167.044V96.156ZM163.828 98.304H171.484V99.684H163.828V98.304ZM165.52 104.28H170.068V105.576H165.52V104.28ZM160.876 96L161.68 94.968C162.352 95.304 163.396 95.832 163.912 96.168L163.06 97.332C162.58 96.972 161.56 96.396 160.876 96ZM160.288 99.324L161.068 98.256C161.752 98.58 162.82 99.096 163.348 99.432L162.544 100.62C162.052 100.284 161.008 99.708 160.288 99.324ZM160.468 104.964C161.116 104.064 162.04 102.564 162.76 101.184L163.816 102.132C163.18 103.404 162.412 104.772 161.692 105.936L160.468 104.964ZM177.652 95.532C177.58 95.844 177.508 96.228 177.436 96.528C177.328 97.068 177.172 97.812 177.052 98.424C176.656 100.116 175.684 103.536 174.436 105.564L172.864 104.94C174.292 103.02 175.192 99.852 175.528 98.34C175.756 97.26 175.888 96.24 175.876 95.34L177.652 95.532ZM181.792 96.648C182.524 97.692 183.532 99.972 183.904 101.124L182.38 101.832C182.068 100.488 181.216 98.328 180.352 97.26L181.792 96.648ZM172.792 97.992C173.224 98.016 173.632 98.004 174.076 97.992C175.036 97.968 177.304 97.704 178.204 97.704C179.464 97.704 180.364 98.268 180.364 100.008C180.364 101.424 180.196 103.368 179.692 104.4C179.284 105.24 178.624 105.504 177.724 105.504C177.256 105.504 176.692 105.432 176.272 105.336L176.02 103.752C176.488 103.884 177.172 104.004 177.484 104.004C177.892 104.004 178.192 103.884 178.384 103.488C178.72 102.816 178.876 101.352 178.876 100.176C178.876 99.216 178.456 99.072 177.712 99.072C176.992 99.072 174.928 99.336 174.268 99.42C173.92 99.468 173.296 99.552 172.936 99.612L172.792 97.992ZM193.54 95.592C193.504 95.784 193.48 96.312 193.468 96.624C193.444 97.44 193.444 98.124 193.42 98.736C193.396 99.804 193.36 101.1 193.24 101.712C193.108 102.348 192.796 102.504 192.184 102.504C191.764 102.504 190.792 102.396 190.384 102.324L190.408 101.004C190.78 101.088 191.284 101.148 191.524 101.148C191.752 101.148 191.86 101.112 191.896 100.872C191.956 100.416 191.98 99.552 192.004 98.724C192.004 98.1 192.004 97.404 192.004 96.696C192.004 96.384 191.956 95.82 191.92 95.592H193.54ZM188.812 95.952C188.764 96.348 188.74 96.684 188.74 97.2C188.74 98.292 188.692 101.46 188.716 102.444C188.752 103.632 188.848 103.896 190.648 103.896C191.824 103.896 193.348 103.752 194.236 103.584L194.176 105.228C193.372 105.312 191.908 105.42 190.756 105.42C187.66 105.42 187.276 104.76 187.228 102.684C187.204 101.652 187.216 98.004 187.216 97.284C187.216 96.78 187.18 96.372 187.12 95.952H188.812ZM184.804 98.664C185.14 98.664 185.692 98.64 186.304 98.568C187.516 98.46 192.028 98.016 194.344 97.872C194.668 97.848 195.136 97.812 195.496 97.788V99.252C195.28 99.24 194.644 99.264 194.332 99.264C192.46 99.324 187.792 99.828 186.4 99.984C186.028 100.032 185.284 100.14 184.96 100.188L184.804 98.664ZM15.64 111.868C15.976 111.904 16.384 111.928 16.72 111.928C17.368 111.928 19.924 111.868 20.608 111.808C21.112 111.772 21.388 111.724 21.532 111.676L22.3 112.756C22.024 112.936 21.736 113.104 21.472 113.308C20.824 113.764 19.564 114.82 18.796 115.42C19.204 115.312 19.564 115.288 19.936 115.288C21.976 115.288 23.524 116.56 23.524 118.3C23.524 120.196 22.084 121.696 19.18 121.696C17.512 121.696 16.252 120.94 16.252 119.728C16.252 118.756 17.14 117.868 18.412 117.868C20.056 117.868 20.968 118.972 21.004 120.292L19.6 120.472C19.576 119.608 19.12 119.008 18.412 119.008C17.968 119.008 17.668 119.284 17.668 119.596C17.668 120.04 18.16 120.34 18.892 120.34C20.92 120.34 21.952 119.572 21.952 118.288C21.952 117.196 20.872 116.464 19.468 116.464C17.62 116.464 16.432 117.448 15.148 118.9L14.056 117.772C14.908 117.1 16.36 115.876 17.056 115.288C17.728 114.736 18.988 113.728 19.576 113.2C18.964 113.224 17.308 113.284 16.66 113.332C16.336 113.356 15.964 113.38 15.688 113.428L15.64 111.868ZM30.772 111.532C30.7 111.844 30.628 112.228 30.556 112.528C30.448 113.068 30.292 113.812 30.172 114.424C29.776 116.116 28.804 119.536 27.556 121.564L25.984 120.94C27.412 119.02 28.312 115.852 28.648 114.34C28.876 113.26 29.008 112.24 28.996 111.34L30.772 111.532ZM34.912 112.648C35.644 113.692 36.652 115.972 37.024 117.124L35.5 117.832C35.188 116.488 34.336 114.328 33.472 113.26L34.912 112.648ZM25.912 113.992C26.344 114.016 26.752 114.004 27.196 113.992C28.156 113.968 30.424 113.704 31.324 113.704C32.584 113.704 33.484 114.268 33.484 116.008C33.484 117.424 33.316 119.368 32.812 120.4C32.404 121.24 31.744 121.504 30.844 121.504C30.376 121.504 29.812 121.432 29.392 121.336L29.14 119.752C29.608 119.884 30.292 120.004 30.604 120.004C31.012 120.004 31.312 119.884 31.504 119.488C31.84 118.816 31.996 117.352 31.996 116.176C31.996 115.216 31.576 115.072 30.832 115.072C30.112 115.072 28.048 115.336 27.388 115.42C27.04 115.468 26.416 115.552 26.056 115.612L25.912 113.992ZM38.464 113.14C38.98 113.2 39.628 113.224 40.06 113.224C41.548 113.224 43.168 112.972 44.332 112.6L44.368 113.992C43.336 114.28 41.608 114.592 40.072 114.58C39.592 114.58 39.088 114.568 38.572 114.544L38.464 113.14ZM43.132 111.34C42.976 111.976 42.688 113.152 42.364 114.172C41.812 115.9 40.732 118.132 39.712 119.548L38.26 118.804C39.34 117.484 40.42 115.384 40.888 114.088C41.176 113.224 41.44 112.108 41.476 111.184L43.132 111.34ZM45.952 115.084C45.916 115.588 45.928 116.092 45.94 116.62C45.964 117.328 46.072 119.116 46.072 119.788C46.072 120.904 45.472 121.78 43.756 121.78C42.268 121.78 41.092 121.108 41.092 119.788C41.092 118.624 42.076 117.712 43.744 117.712C45.844 117.712 47.5 118.768 48.496 119.668L47.704 120.964C46.84 120.16 45.472 118.924 43.66 118.924C42.964 118.924 42.508 119.224 42.508 119.644C42.508 120.088 42.892 120.4 43.552 120.4C44.368 120.4 44.632 119.944 44.632 119.272C44.632 118.552 44.5 116.344 44.44 115.084H45.952ZM48.016 115.72C47.32 115.156 45.952 114.376 45.124 114.004L45.904 112.828C46.768 113.2 48.244 114.004 48.868 114.448L48.016 115.72ZM51.424 115.924C51.784 115.864 52.336 115.72 52.696 115.6C53.524 115.36 55.552 114.664 57.004 114.664C58.912 114.664 60.184 115.792 60.184 117.616C60.184 119.776 58.264 121.264 54.46 121.492L53.824 120.016C56.56 119.944 58.588 119.212 58.588 117.58C58.588 116.692 57.916 116.056 56.86 116.056C55.468 116.056 53.08 117.052 52.048 117.484L51.424 115.924ZM62.2143 112.756C62.6823 112.744 63.1623 112.72 63.3903 112.696C64.3983 112.6 66.3663 112.432 68.5743 112.24C69.8103 112.132 71.1183 112.06 71.9703 112.024L71.9823 113.572C71.3343 113.572 70.3023 113.584 69.6543 113.728C68.2143 114.112 67.1223 115.672 67.1223 117.088C67.1223 119.068 68.9703 119.776 70.9983 119.884L70.4463 121.528C67.9263 121.372 65.5503 120.016 65.5503 117.412C65.5503 115.684 66.5223 114.328 67.3383 113.716C66.2103 113.836 63.7623 114.088 62.3703 114.4L62.2143 112.756ZM76.9863 118.192H78.4383V120.148C78.4383 120.508 78.5463 120.544 79.1343 120.544C79.3983 120.544 80.5023 120.544 80.8503 120.544C81.3543 120.544 81.4383 120.376 81.5103 119.176C81.8103 119.392 82.4223 119.62 82.8183 119.704C82.6503 121.42 82.2423 121.852 80.9703 121.852C80.6343 121.852 79.2783 121.852 78.9663 121.852C77.3703 121.852 76.9863 121.444 76.9863 120.16V118.192ZM78.1743 117.82L79.1223 116.932C79.9743 117.352 81.0303 118.024 81.5463 118.564L80.5143 119.548C80.0463 119.02 79.0263 118.288 78.1743 117.82ZM82.3503 118.336L83.6343 117.808C84.2943 118.696 84.9783 119.872 85.2183 120.724L83.8143 121.312C83.6103 120.508 82.9863 119.272 82.3503 118.336ZM75.2943 117.88L76.5903 118.348C76.3143 119.38 75.8943 120.592 75.3183 121.396L74.0343 120.676C74.5863 119.956 75.0423 118.864 75.2943 117.88ZM76.5903 114.748V115.78H82.4463V114.748H76.5903ZM76.5903 112.564V113.584H82.4463V112.564H76.5903ZM75.2343 111.316H83.8743V117.028H75.2343V111.316ZM78.8463 111.868H80.2503V116.512H78.8463V111.868ZM88.9503 112.432C88.8663 112.852 88.8063 113.56 88.8063 113.896C88.8063 114.676 88.8063 115.564 88.8783 116.44C89.0463 118.168 89.4063 119.356 90.1623 119.356C90.7383 119.356 91.2063 117.94 91.4343 116.992L92.6463 118.444C91.8423 120.544 91.0983 121.264 90.1383 121.264C88.8063 121.264 87.6663 120.088 87.3303 116.872C87.2103 115.768 87.1983 114.352 87.1983 113.62C87.1983 113.296 87.1863 112.78 87.1023 112.408L88.9503 112.432ZM94.9503 112.696C96.0903 114.076 97.0143 117.076 97.1463 118.912L95.5623 119.536C95.3823 117.592 94.7343 114.688 93.4263 113.2L94.9503 112.696ZM105.246 111.304C105.21 111.544 105.174 111.844 105.162 112.156C105.138 112.768 105.126 114.472 105.126 115.48C105.126 116.8 105.318 118.972 105.318 119.92C105.318 120.952 104.538 121.744 102.966 121.744C101.046 121.744 100.038 121.012 100.038 119.74C100.038 118.528 101.154 117.676 102.99 117.676C105.63 117.676 107.598 118.972 108.594 119.812L107.73 121.156C106.59 120.076 104.85 118.912 102.798 118.912C101.958 118.912 101.49 119.236 101.49 119.656C101.49 120.112 101.91 120.388 102.738 120.388C103.374 120.388 103.806 120.208 103.806 119.512C103.806 118.792 103.674 116.644 103.674 115.48C103.674 114.328 103.686 112.804 103.686 112.12C103.686 111.904 103.662 111.532 103.614 111.304H105.246ZM100.266 112.42C101.118 112.564 102.498 112.684 103.23 112.684C104.862 112.684 106.434 112.6 108.186 112.324L108.174 113.692C106.95 113.86 105.042 114.004 103.242 114.004C102.474 114.004 101.082 113.896 100.29 113.8L100.266 112.42ZM100.194 115.012C100.986 115.156 102.45 115.24 103.086 115.24C105.306 115.24 106.854 115.096 108.33 114.904L108.318 116.32C106.662 116.512 105.354 116.584 103.074 116.584C102.366 116.584 101.01 116.524 100.218 116.428L100.194 115.012ZM114.774 111.484C114.702 111.988 114.642 112.612 114.618 113.092C114.558 114.388 114.474 117.064 114.474 118.552C114.474 119.764 115.194 120.16 116.13 120.16C118.11 120.16 119.358 119.02 120.234 117.712L121.326 119.044C120.546 120.196 118.842 121.792 116.106 121.792C114.138 121.792 112.878 120.928 112.878 118.876C112.878 117.268 112.986 114.124 112.986 113.092C112.986 112.516 112.938 111.94 112.842 111.472L114.774 111.484ZM128.238 111.424C128.154 111.76 128.046 112.3 127.986 112.564C127.818 113.38 127.518 114.844 127.194 116.068C126.762 117.748 125.958 120.196 125.298 121.624L123.63 121.06C124.338 119.848 125.25 117.34 125.706 115.66C126.006 114.532 126.282 113.212 126.366 112.504C126.426 112.06 126.438 111.568 126.402 111.28L128.238 111.424ZM125.178 113.224C126.642 113.224 128.334 112.996 129.894 112.624V114.124C128.406 114.472 126.522 114.676 125.166 114.676C124.578 114.676 124.134 114.652 123.714 114.628L123.666 113.128C124.29 113.2 124.686 113.224 125.178 113.224ZM128.946 115.06C129.618 114.988 130.482 114.94 131.262 114.94C131.946 114.94 132.666 114.976 133.362 115.048L133.338 116.488C132.726 116.416 131.994 116.332 131.274 116.332C130.446 116.332 129.702 116.368 128.946 116.464V115.06ZM129.594 118.072C129.51 118.42 129.438 118.804 129.438 119.068C129.438 119.596 129.786 119.992 131.082 119.992C131.886 119.992 132.714 119.908 133.566 119.752L133.506 121.276C132.834 121.372 132.03 121.444 131.07 121.444C129.042 121.444 127.962 120.76 127.962 119.548C127.962 118.984 128.07 118.408 128.166 117.94L129.594 118.072ZM137.118 118.036C138.198 118.036 139.062 118.9 139.062 119.968C139.062 121.048 138.198 121.912 137.118 121.912C136.05 121.912 135.174 121.048 135.174 119.968C135.174 118.9 136.05 118.036 137.118 118.036ZM137.118 121.048C137.718 121.048 138.198 120.568 138.198 119.968C138.198 119.38 137.718 118.9 137.118 118.9C136.53 118.9 136.038 119.38 136.038 119.968C136.038 120.568 136.53 121.048 137.118 121.048Z" fill="black"/>
</svg>
