<?xml version="1.0" encoding="UTF-8"?>
<svg id="_レイヤー_2" data-name="レイヤー 2" xmlns="http://www.w3.org/2000/svg" xmlns:xlink="http://www.w3.org/1999/xlink" viewBox="0 0 286.2 100.79">
  <defs>
    <style>
      .cls-1 {
        fill: #e7b435;
      }

      .cls-2 {
        fill: #1e233f;
      }

      .cls-3 {
        fill: #3581c5;
      }

      .cls-4 {
        fill: url(#_名称未設定グラデーション_12);
      }
    </style>
    <linearGradient id="_名称未設定グラデーション_12" data-name="名称未設定グラデーション 12" x1="17.51" y1="30.2" x2="62.1" y2="87.51" gradientUnits="userSpaceOnUse">
      <stop offset="0" stop-color="#1f2543"/>
      <stop offset="1" stop-color="#3581c5"/>
    </linearGradient>
  </defs>
  <g id="_レイヤー_1-2" data-name="レイヤー 1">
    <g>
      <path class="cls-4" d="M72.61,46.59C67.18,16.16,27.56,10.47,11.81,26.22c-15.75,15.75-15.75,41.27,0,57.02,15.75,15.75,57.19,11.32,60.8-13.96l-36.3-8.64,36.3-14.04Z"/>
      <rect class="cls-1" x="76.27" y="36.8" width="29.59" height="3" transform="translate(-7.39 30.18) rotate(-18.09)"/>
      <rect class="cls-1" x="89.57" y="59.54" width="3" height="29.59" transform="translate(-8.14 137.4) rotate(-71.67)"/>
      <rect class="cls-1" x="77.01" y="55.41" width="29.59" height="3"/>
      <path class="cls-2" d="M132.96,62.03c-6.08.3-10.07-.8-13.54-3.74-2.3-2.02-3.7-4.42-4.1-7.09s-.11-4.78,2.01-12.13l11.51-1.72c-.27.65-.53,1.29-.79,2-1.75,4.08-2.16,5.84-1.84,7.98.37,2.49,1.94,3.65,5.18,3.78,1.9.14,6.21-.26,10.13-.85,4.98-.75,13.23-2.41,21.38-4.29l1.72,11.51-18.66,2.98c-4.21.63-10.89,1.45-12.99,1.58ZM114.91,14.81l40.35-6.47,1.52,10.15-40.35,6.41-1.51-10.09Z"/>
      <path class="cls-3" d="M176.36,49.73c-4.88-3.65-6.98-9.48-5.68-15.7,1.07-5.17,4.28-9.4,9.04-11.97,3.59-1.95,6.84-2.56,14.19-2.51l2.93-16.73,11.46,2.38-3.41,15.22c6.68.9,9.64,1.39,17.52,2.97l-2.06,9.93c-10.34-2.15-20.83-3.84-26.03-4.18-6.27-.51-11.2,2.27-12.16,6.91-.66,3.17.7,5.78,3.66,7.13,1.45.67,5.69,1.8,10.98,2.89,3.05.63,9.52,1.67,20.33,3.31l-2.16,10.4c-8.76-1.51-13.54-2.38-19.76-3.68-11.16-2.32-15.28-3.73-18.84-6.37Z"/>
      <path class="cls-2" d="M233.83,46.3c-1.89-9.04-3.05-17.51-4.66-33.96l9.87-2.07c.76,15.66,1.51,22.12,3.87,33.39,1.65,7.87,2.59,10.92,5.33,16.97l-9.75,2.04c-2.22-5.91-3.11-8.97-4.65-16.37ZM248.84,49.47c-.8-3.82.29-7.42,3.05-10.02,1.78-1.72,4.08-2.75,7.6-3.49.59-.12,1.89-.33,3.37-.58l-2.09-9.98-14.27,2.99-1.92-9.16,14.27-2.99-2.13-10.16,9.22-1.93,2.13,10.16,9.51-1.99,1.92,9.16-9.51,1.99,2.5,11.92c5.61,1.03,7.93,1.59,11.43,2.76l2.27,10.86c-4.91-2.1-7.04-2.88-10.89-3.97.26,3.56-.1,5.35-1.44,7.47-1.57,2.47-4.8,4.31-8.79,5.15-8.16,1.71-14.89-1.72-16.24-8.18ZM265.11,45.51c-.3-1.41-2.15-2.06-4.56-1.56-1.7.36-2.81,1.81-2.5,3.28.34,1.64,1.93,2.48,3.87,2.07,2.35-.49,3.58-1.92,3.19-3.79ZM267.07,2.43l5.05-1.06,1.89,9.04-5.05,1.06-1.89-9.04ZM273.64,1.06l5.05-1.06,1.89,9.04-5.05,1.06-1.89-9.04Z"/>
      <g>
        <path class="cls-1" d="M132.86,83.36h6.93l1.72,2.87,1.36,2.35c8.51-.8,11.31-3.04,11.41-9.17v-2.14h-23.8v-5.6h29.93v7.56c-.04,9-3.99,12.99-14.32,14.6,1.08,2.07,1.75,3.43,3.19,6.44h-6.86c-2.73-5.53-5.85-10.96-9.56-16.91Z"/>
        <path class="cls-1" d="M165.27,94.87h2.21c5.32.04,8.05-1.29,10.64-5.18,1.72-2.42,4.41-8.02,6.16-12.81h-16.59v-5.78h25.31c-1.89,6.09-3.47,10.08-5.67,14.28,3.89,5.43,6.44,9.7,9.03,15.02h-7.6c-1.54-3.68-2.62-5.74-4.69-9.07-3.33,6.02-7.95,9.03-14.39,9.45h-4.41v-5.92Z"/>
        <path class="cls-1" d="M201.39,94.42h12.36c5.99.07,8.96-1.75,9.8-5.95h-14.35v-5.74h14.49v-5.85h-12.88c-.88,6.23-4.41,10.12-10.61,11.69v-6.16c3.36-1.15,4.73-4.06,5.22-11.24h24.5v14.6c0,10.08-4.97,14.46-16.35,14.46h-12.18v-5.81Z"/>
        <path class="cls-1" d="M236.42,82.41h28.67v5.95h-28.67v-5.95Z"/>
      </g>
    </g>
  </g>
</svg>