<svg width="294" height="89" viewBox="0 0 294 89" fill="none" xmlns="http://www.w3.org/2000/svg">
<circle cx="30" cy="31" r="29.5" fill="white" stroke="#A5A5A5"/>
<path fill-rule="evenodd" clip-rule="evenodd" d="M15.7662 36.433C17.5374 34.6618 19.9396 33.6667 22.4444 33.6667H37.5556C40.0604 33.6667 42.4626 34.6618 44.2338 36.433C46.005 38.2041 47 40.6064 47 43.1112V46.889C47 47.9322 46.1543 48.7779 45.1111 48.7779C44.0679 48.7779 43.2222 47.9322 43.2222 46.889V43.1112C43.2222 41.6083 42.6252 40.167 41.5625 39.1043C40.4998 38.0415 39.0584 37.4445 37.5556 37.4445H22.4444C20.9416 37.4445 19.5002 38.0415 18.4375 39.1043C17.3748 40.167 16.7778 41.6083 16.7778 43.1112V46.889C16.7778 47.9322 15.9321 48.7779 14.8889 48.7779C13.8457 48.7779 13 47.9322 13 46.889V43.1112C13 40.6064 13.995 38.2041 15.7662 36.433Z" fill="#D9D9D9"/>
<path fill-rule="evenodd" clip-rule="evenodd" d="M30 14.7778C26.8704 14.7778 24.3333 17.3148 24.3333 20.4444C24.3333 23.5741 26.8704 26.1111 30 26.1111C33.1296 26.1111 35.6667 23.5741 35.6667 20.4444C35.6667 17.3148 33.1296 14.7778 30 14.7778ZM20.5555 20.4444C20.5555 15.2284 24.784 11 30 11C35.216 11 39.4444 15.2284 39.4444 20.4444C39.4444 25.6605 35.216 29.8889 30 29.8889C24.784 29.8889 20.5555 25.6605 20.5555 20.4444Z" fill="#D9D9D9"/>
<path d="M19.276 80.336H12.71C12.486 80.336 12.444 80.518 12.43 80.742C12.416 80.994 12.164 81.022 11.856 81.022H11.03C10.428 81.022 10.274 80.994 10.274 80.658C10.274 80.042 10.316 79.426 10.316 78.81V73.742C10.316 73.294 10.288 72.846 10.288 72.398C10.288 71.796 10.638 71.684 11.17 71.684C11.646 71.684 12.108 71.712 12.584 71.712H13.578C13.816 71.712 14.026 71.656 14.18 71.46C14.278 71.348 14.516 70.872 14.516 70.732C14.516 70.55 14.334 70.508 14.194 70.508H11.982C11.366 70.508 10.75 70.536 10.134 70.536C9.798 70.536 9.77 70.382 9.77 69.962V69.206C9.77 68.8 9.798 68.632 10.134 68.632C10.75 68.632 11.366 68.674 11.982 68.674H20.004C20.62 68.674 21.236 68.632 21.852 68.632C22.188 68.632 22.216 68.8 22.216 69.206V69.962C22.216 70.368 22.188 70.536 21.852 70.536C21.236 70.536 20.62 70.508 20.004 70.508H17.498C17.288 70.508 17.092 70.606 16.98 70.774C16.896 70.9 16.644 71.348 16.644 71.474C16.644 71.684 16.854 71.712 17.022 71.712H19.374C19.85 71.712 20.312 71.684 20.774 71.684C21.264 71.684 21.684 71.754 21.684 72.398C21.684 72.846 21.642 73.294 21.642 73.742V78.81C21.642 79.426 21.684 80.028 21.684 80.644C21.684 80.994 21.53 81.022 20.998 81.022H20.508C19.612 81.022 19.528 81.022 19.528 80.588C19.528 80.434 19.416 80.35 19.276 80.336ZM12.78 78.474H13.088C13.326 78.474 13.48 78.264 13.48 78.082V73.98C13.48 73.77 13.298 73.588 13.088 73.588H12.78C12.57 73.588 12.388 73.77 12.388 73.98V78.082C12.388 78.292 12.57 78.474 12.78 78.474ZM15.636 78.474H16.378C16.532 78.474 16.644 78.348 16.644 78.194V78.152C16.644 77.998 16.532 77.886 16.378 77.886H15.636C15.482 77.886 15.37 77.998 15.37 78.152V78.194C15.37 78.362 15.482 78.46 15.636 78.474ZM18.926 78.474H19.178C19.402 78.474 19.57 78.292 19.57 78.082V73.98C19.57 73.77 19.402 73.588 19.178 73.588H18.926C18.702 73.588 18.534 73.77 18.534 73.98V78.082C18.534 78.292 18.688 78.446 18.926 78.474ZM16.42 73.588H15.594C15.468 73.588 15.37 73.686 15.37 73.812V73.854C15.37 73.98 15.468 74.078 15.594 74.078H16.42C16.546 74.078 16.644 73.98 16.644 73.854V73.812C16.644 73.686 16.56 73.602 16.42 73.588ZM16.42 75.688H15.594C15.468 75.688 15.37 75.786 15.37 75.912V75.982C15.37 76.108 15.468 76.206 15.594 76.206H16.42C16.546 76.206 16.644 76.108 16.644 75.982V75.912C16.644 75.786 16.56 75.702 16.42 75.688ZM34.956 71.894C34.858 72.104 34.746 72.328 34.746 72.426C34.746 72.636 34.956 72.65 35.11 72.65C35.376 72.65 35.642 72.622 35.894 72.622C36.202 72.622 36.23 72.748 36.23 73.084V73.826C36.23 74.218 36.202 74.344 35.894 74.344C35.39 74.344 34.886 74.302 34.382 74.302H32.912C32.87 74.302 32.856 74.316 32.856 74.358C32.856 74.386 32.884 74.414 32.884 74.47C32.884 74.666 32.66 74.68 32.492 74.722C32.366 74.736 32.31 74.876 32.31 74.932C32.31 75.03 32.394 75.1 32.506 75.1H33.724C34.354 75.1 34.998 75.072 35.628 75.072C36.188 75.072 36.202 75.184 36.202 75.772V76.108C36.202 76.696 36.174 76.766 35.586 76.766H35.292C35.264 76.766 35.222 76.78 35.222 76.808C35.222 76.85 35.278 76.878 35.32 76.892C35.39 76.934 35.446 77.004 35.446 77.088C35.446 77.27 35.236 77.312 35.096 77.354C35.012 77.382 34.97 77.48 34.928 77.564C34.858 77.732 34.774 77.886 34.676 78.054C34.634 78.138 34.564 78.278 34.564 78.376C34.564 78.628 34.76 78.712 34.956 78.824C35.152 78.936 35.628 79.23 35.796 79.356C35.894 79.426 35.978 79.482 35.978 79.594C35.978 79.79 35.278 80.98 34.956 80.98C34.872 80.98 34.774 80.896 34.718 80.84C34.438 80.602 33.92 80.294 33.612 80.084C33.402 79.958 33.304 79.902 33.052 79.902C32.758 79.902 32.562 80 32.31 80.14C31.344 80.63 29.93 80.938 28.852 80.938C28.53 80.938 28.432 80.56 28.348 80.266C28.278 80.042 28.166 79.594 28.166 79.37C28.166 79.16 28.278 79.09 28.46 79.09H28.53C29.314 79.09 29.86 79.062 30.63 78.852C30.742 78.824 30.812 78.81 30.812 78.754C30.812 78.656 30.504 78.586 30.448 78.586C30.364 78.586 30.308 78.614 30.238 78.67C30.154 78.726 30.07 78.754 29.972 78.754C29.566 78.754 28.446 78.362 28.446 77.984C28.446 77.872 28.754 77.41 28.894 77.172C28.922 77.13 28.95 77.102 28.964 77.074C28.992 77.018 29.02 76.99 29.02 76.934C29.02 76.794 28.894 76.766 28.796 76.766C28.404 76.752 28.292 76.682 28.292 76.332V76.15C28.292 75.94 28.278 75.716 28.082 75.716C27.956 75.716 27.746 75.842 27.634 75.884C27.396 75.996 27.158 76.08 27.158 76.486V78.138C27.158 78.502 27.186 78.852 27.186 79.202C27.186 80.658 26.178 80.868 24.96 80.868C24.358 80.868 24.288 80.77 24.092 80.224C23.994 79.93 23.812 79.328 23.812 79.02C23.812 78.866 23.854 78.768 24.022 78.768C24.134 78.768 24.372 78.796 24.498 78.824C24.568 78.824 24.694 78.852 24.778 78.852C25.142 78.852 25.17 78.67 25.17 78.362V77.2C25.17 77.046 25.114 76.906 24.946 76.906C24.876 76.906 24.638 77.004 24.498 77.06C24.4 77.102 24.386 77.13 24.33 77.312C24.302 77.396 24.232 77.508 24.12 77.508C23.966 77.508 23.924 77.284 23.868 77.004C23.798 76.654 23.56 75.394 23.56 75.282C23.56 75.1 23.77 75.086 24.218 75.002C24.946 74.862 25.17 74.82 25.17 74.4V72.818C25.17 72.594 24.988 72.426 24.778 72.426C24.554 72.426 24.316 72.454 24.092 72.454C23.756 72.454 23.728 72.3 23.728 71.936V71.166C23.728 70.732 23.756 70.592 24.092 70.592C24.33 70.592 24.554 70.62 24.778 70.62C25.016 70.62 25.17 70.438 25.17 70.214V69.444C25.17 69.052 25.128 68.73 25.128 68.618C25.128 68.464 25.212 68.436 25.436 68.436C25.87 68.436 26.542 68.478 27.018 68.492C27.284 68.506 27.48 68.548 27.48 68.716C27.48 68.856 27.382 68.898 27.284 68.968C27.172 69.052 27.158 69.248 27.158 69.584V70.186C27.158 70.438 27.312 70.606 27.564 70.606C27.662 70.606 27.83 70.592 27.956 70.592C28.306 70.592 28.334 70.746 28.334 71.138V71.88C28.334 72.3 28.306 72.454 27.97 72.454C27.83 72.454 27.676 72.44 27.55 72.44C27.34 72.44 27.158 72.608 27.158 72.818V73.742C27.158 73.882 27.2 74.05 27.382 74.05C27.466 74.05 27.634 73.98 27.718 73.938C27.802 73.896 27.998 73.826 28.082 73.826H28.152C28.25 73.826 28.306 73.742 28.306 73.658V73.14C28.306 72.734 28.334 72.622 28.642 72.622C28.88 72.622 29.118 72.65 29.356 72.65C29.524 72.65 29.748 72.636 29.748 72.426C29.748 72.342 29.594 71.992 29.468 71.712C29.398 71.558 29.342 71.418 29.314 71.348C29.272 71.25 29.174 71.152 29.062 71.152C29.034 71.152 29.006 71.166 28.978 71.166C28.656 71.166 28.628 71.04 28.628 70.634V69.962C28.628 69.598 28.656 69.444 28.964 69.444C29.482 69.444 29.986 69.472 30.504 69.472H30.77C30.994 69.472 31.162 69.304 31.162 69.08C31.162 68.856 31.12 68.548 31.12 68.422C31.12 68.226 31.26 68.226 31.442 68.226C31.68 68.226 32.912 68.31 33.206 68.338C33.332 68.352 33.556 68.366 33.556 68.52C33.556 68.576 33.528 68.604 33.486 68.646C33.304 68.786 33.234 68.842 33.234 69.094C33.234 69.304 33.416 69.472 33.626 69.472H34.046C34.55 69.472 35.068 69.444 35.586 69.444C35.88 69.444 35.908 69.584 35.908 69.892V70.718C35.908 71.124 35.824 71.166 35.502 71.166C35.432 71.166 35.432 71.18 35.432 71.194C35.432 71.222 35.446 71.236 35.46 71.236C35.488 71.264 35.502 71.306 35.502 71.348C35.502 71.46 35.39 71.488 35.292 71.502C35.18 71.516 35.124 71.53 35.082 71.642C35.054 71.712 34.998 71.81 34.956 71.894ZM32.758 76.738H31.666C31.456 76.738 31.246 76.864 31.246 77.004C31.246 77.144 31.372 77.172 31.442 77.2C31.61 77.256 32.016 77.396 32.184 77.466C32.268 77.508 32.338 77.536 32.45 77.536C32.8 77.536 33.01 76.934 33.01 76.892C33.01 76.78 32.898 76.738 32.758 76.738ZM30.126 74.302H29.958C28.726 74.302 28.474 74.302 28.474 74.708C28.474 74.946 28.656 75.072 28.824 75.072H28.908C29.146 75.072 29.37 75.086 29.608 75.086C30.028 75.086 30.182 74.918 30.35 74.568C30.364 74.54 30.378 74.512 30.378 74.47C30.378 74.33 30.252 74.302 30.126 74.302ZM31.736 72.664H32.156C32.52 72.664 32.59 72.454 32.758 72.034C32.786 71.936 32.828 71.838 32.87 71.74C32.912 71.642 33.01 71.432 33.01 71.334C33.01 71.194 32.856 71.124 32.73 71.124H31.722C31.582 71.124 31.442 71.194 31.442 71.348C31.442 71.432 31.484 71.516 31.512 71.586C31.568 71.712 31.778 72.258 31.778 72.37C31.778 72.454 31.736 72.51 31.68 72.566C31.666 72.566 31.652 72.594 31.652 72.608C31.652 72.664 31.694 72.664 31.736 72.664ZM39.87 78.712V73.336C39.87 73.07 39.828 72.72 39.436 72.72H38.414C38.176 72.72 37.952 72.678 37.952 72.384C37.952 72.23 37.994 71.894 37.994 71.642V70.76C37.994 70.382 37.966 69.962 37.966 69.864C37.966 69.388 38.512 69.388 38.848 69.388C39.352 69.388 39.856 69.402 40.36 69.402H42.474C42.796 69.402 42.936 69.192 42.936 68.982C42.936 68.884 42.894 68.59 42.894 68.45C42.894 68.282 43.062 68.268 43.188 68.268C43.51 68.268 44.392 68.338 44.756 68.366C45.078 68.394 45.33 68.408 45.33 68.562C45.33 68.632 45.26 68.674 45.162 68.73C45.064 68.786 45.036 68.94 45.036 69.038C45.036 69.178 45.12 69.402 45.512 69.402H47.612C48.116 69.402 48.62 69.388 49.124 69.388C49.474 69.388 50.02 69.388 50.02 69.864C50.02 70.004 49.978 70.354 49.978 70.76V71.642C49.978 71.908 50.02 72.216 50.02 72.384C50.02 72.692 49.81 72.72 49.39 72.72H48.578C48.186 72.72 47.962 72.692 47.962 72.384C47.962 72.216 48.004 71.936 48.004 71.586C48.004 71.292 47.738 71.222 47.514 71.222H40.108C40.01 71.222 39.926 71.292 39.926 71.39V71.628C39.926 71.782 39.996 71.824 40.108 71.824C40.136 71.824 40.262 71.796 40.304 71.782C40.346 71.768 40.5 71.768 40.556 71.768C40.948 71.768 41.34 71.81 41.732 71.81H45.904C46.296 71.81 46.688 71.768 47.08 71.768C47.5 71.768 47.808 71.866 47.808 72.426C47.808 72.678 47.78 73.056 47.78 73.49V74.4C47.78 74.764 47.808 75.128 47.808 75.492C47.808 75.982 47.598 75.982 46.66 75.982C45.862 75.982 45.792 75.968 45.694 75.744C45.652 75.66 45.596 75.646 45.33 75.646H42.194C42.04 75.646 41.914 75.758 41.914 75.912V76.052C41.914 76.206 42.04 76.318 42.194 76.318H46.212C46.674 76.318 47.15 76.29 47.626 76.29C48.088 76.29 48.424 76.402 48.424 76.934C48.424 77.312 48.396 77.732 48.396 78.194V78.908C48.396 79.496 48.424 80.098 48.424 80.686C48.424 80.994 48.27 81.022 47.836 81.022H46.926C46.408 81.022 46.324 80.994 46.31 80.658C46.296 80.434 46.156 80.336 45.96 80.336H42.278C42.068 80.336 41.956 80.434 41.956 80.644C41.956 80.98 41.788 81.008 41.284 81.008H40.444C39.996 81.008 39.828 80.98 39.828 80.616C39.828 79.972 39.87 79.342 39.87 78.712ZM42.25 78.698H46.016C46.212 78.698 46.352 78.544 46.352 78.362V78.264C46.352 78.082 46.198 77.928 46.016 77.928H42.25C42.068 77.928 41.914 78.082 41.914 78.264V78.362C41.914 78.558 42.068 78.698 42.25 78.698ZM45.722 73.77V73.672C45.708 73.518 45.61 73.406 45.456 73.406H42.194C42.04 73.406 41.914 73.532 41.914 73.672V73.77C41.914 73.924 42.04 74.036 42.194 74.036H45.456C45.596 74.036 45.722 73.924 45.722 73.77Z" fill="#0A0028"/>
<path fill-rule="evenodd" clip-rule="evenodd" d="M93 1C87.4772 1 83 5.47715 83 11V46C83 51.381 87.2502 55.7694 92.5767 55.9912C89.7825 61.5917 84.7432 68.3835 77.9622 69C67.8645 69.9179 99.4788 71.2572 110.535 56H283C288.523 56 293 51.5228 293 46V11C293 5.47715 288.523 1 283 1H93Z" fill="white"/>
<path d="M92.5767 55.9912L93.0241 56.2144L93.3687 55.5238L92.5975 55.4916L92.5767 55.9912ZM77.9622 69L78.0074 69.4979L78.0074 69.4979L77.9622 69ZM110.535 56V55.5H110.28L110.13 55.7066L110.535 56ZM83.5 11C83.5 5.7533 87.7533 1.5 93 1.5V0.5C87.201 0.5 82.5 5.20101 82.5 11H83.5ZM83.5 46V11H82.5V46H83.5ZM92.5975 55.4916C87.5377 55.2809 83.5 51.1119 83.5 46H82.5C82.5 51.6502 86.9627 56.2578 92.5559 56.4908L92.5975 55.4916ZM78.0074 69.4979C81.5565 69.1753 84.6147 67.2402 87.1194 64.7168C89.6253 62.1922 91.612 59.0448 93.0241 56.2144L92.1293 55.768C90.7472 58.5382 88.8171 61.5869 86.4096 64.0124C84.0008 66.4392 81.1489 68.2082 77.9169 68.502L78.0074 69.4979ZM110.13 55.7066C104.724 63.1674 94.2302 66.6197 86.2265 68.0737C82.2405 68.7979 78.9217 69.0175 77.2417 69.0015C76.8193 68.9975 76.5183 68.9787 76.3416 68.9536C76.2419 68.9394 76.2264 68.9289 76.2507 68.9398C76.2606 68.9443 76.2847 68.9557 76.3143 68.9773C76.342 68.9977 76.3943 69.0412 76.4371 69.1157C76.4849 69.1988 76.513 69.3081 76.4941 69.4268C76.4765 69.5368 76.4255 69.6129 76.3904 69.6542C76.3557 69.6951 76.3227 69.7188 76.3075 69.7289C76.2907 69.7401 76.2791 69.7456 76.2769 69.7466C76.2733 69.7483 76.2832 69.7435 76.3144 69.7341C76.3759 69.7157 76.4777 69.692 76.6293 69.6653C76.93 69.6122 77.3825 69.5547 78.0074 69.4979L77.9169 68.502C77.2796 68.5599 76.7958 68.6205 76.4556 68.6805C76.2869 68.7102 76.142 68.7418 76.027 68.7763C75.97 68.7934 75.9092 68.8145 75.8519 68.8414C75.807 68.8625 75.709 68.9117 75.6279 69.0072C75.5829 69.0603 75.5259 69.1481 75.5065 69.2694C75.4858 69.3996 75.5161 69.52 75.5702 69.6141C75.6594 69.7693 75.8003 69.8338 75.8422 69.8526C75.9551 69.9031 76.0906 69.9279 76.2006 69.9436C76.4432 69.9781 76.7963 69.9974 77.2322 70.0015C78.9854 70.0181 82.3679 69.7911 86.4053 69.0576C94.4484 67.5965 105.29 64.0898 110.94 56.2934L110.13 55.7066ZM283 55.5H110.535V56.5H283V55.5ZM292.5 46C292.5 51.2467 288.247 55.5 283 55.5V56.5C288.799 56.5 293.5 51.799 293.5 46H292.5ZM292.5 11V46H293.5V11H292.5ZM283 1.5C288.247 1.5 292.5 5.7533 292.5 11H293.5C293.5 5.20101 288.799 0.5 283 0.5V1.5ZM93 1.5H283V0.5H93V1.5Z" fill="#A5A5A5"/>
<path d="M97.406 18.422H104.49V19.766H97.406V18.422ZM97.574 13.48H104.448V14.796H97.574V13.48ZM99.926 17.414L101.48 17.75C100.794 19.192 99.884 20.9 99.212 22.02L97.742 21.572C98.4 20.494 99.324 18.744 99.926 17.414ZM101.914 19.36L103.454 19.486C102.95 22.426 101.48 23.602 98.148 24.274C98.05 23.812 97.742 23.224 97.462 22.888C100.248 22.538 101.466 21.656 101.914 19.36ZM102.908 11.282L104.322 11.842C103.86 12.472 103.412 13.116 103.048 13.55L101.97 13.06C102.292 12.57 102.684 11.814 102.908 11.282ZM100.234 11.1H101.774V17.61H100.234V11.1ZM97.91 11.842L99.114 11.338C99.492 11.87 99.842 12.584 99.968 13.088L98.68 13.648C98.582 13.158 98.26 12.416 97.91 11.842ZM100.276 14.138L101.368 14.796C100.668 15.902 99.324 17.12 98.148 17.778C97.952 17.414 97.588 16.854 97.28 16.546C98.414 16.084 99.674 15.09 100.276 14.138ZM101.634 14.544C102.138 14.782 103.734 15.72 104.126 15.986L103.23 17.148C102.712 16.63 101.466 15.636 100.85 15.202L101.634 14.544ZM105.414 13.648H110.552V15.202H105.414V13.648ZM105.568 11.1L107.262 11.338C106.828 14.236 105.988 16.924 104.7 18.632C104.434 18.324 103.748 17.722 103.37 17.442C104.546 16.014 105.232 13.606 105.568 11.1ZM108.102 14.6L109.824 14.754C109.222 19.542 107.78 22.538 104.238 24.316C104.07 23.91 103.58 23.14 103.272 22.776C106.464 21.376 107.682 18.744 108.102 14.6ZM106.366 14.894C106.926 18.436 108.158 21.46 110.734 22.776C110.342 23.112 109.81 23.784 109.558 24.246C106.744 22.566 105.526 19.318 104.84 15.132L106.366 14.894ZM98.974 21.586L99.87 20.438C101.522 21.068 103.272 22.048 104.224 22.804L103.062 23.994C102.166 23.21 100.542 22.23 98.974 21.586ZM118.224 11.744C118.14 12.01 118.084 12.262 118.028 12.486C117.762 13.788 117.524 15.804 117.524 17.54C117.524 19.752 117.93 21.32 118.392 22.734L116.782 23.21C116.362 21.95 115.956 19.878 115.956 17.82C115.956 15.986 116.208 13.928 116.362 12.542C116.39 12.262 116.418 11.94 116.404 11.688L118.224 11.744ZM115.718 13.284C118.378 13.284 120.492 13.158 122.634 12.64L122.648 14.25C120.73 14.6 117.79 14.81 115.676 14.81C114.934 14.81 113.842 14.74 113.184 14.712L113.142 13.102C113.646 13.172 114.864 13.284 115.718 13.284ZM121.766 15.342C121.654 15.594 121.444 16.238 121.346 16.532C120.548 19.052 119.106 20.942 117.776 21.922C116.866 22.594 115.648 23.21 114.43 23.21C113.408 23.21 112.554 22.594 112.554 21.166C112.554 19.192 114.318 17.134 116.544 16.322C117.468 15.986 118.616 15.776 119.666 15.776C122.284 15.776 124.216 17.288 124.216 19.472C124.216 21.46 123.04 23.378 119.61 23.91L118.672 22.426C121.374 22.132 122.48 20.774 122.48 19.388C122.48 18.198 121.458 17.19 119.568 17.19C118.294 17.19 117.286 17.554 116.6 17.862C115.2 18.52 114.206 19.864 114.206 20.802C114.206 21.264 114.388 21.502 114.85 21.502C115.508 21.502 116.446 21.04 117.3 20.242C118.322 19.304 119.274 18.058 119.834 16.126C119.932 15.832 120.03 15.23 120.044 14.922L121.766 15.342ZM128.64 12.346C129.032 12.388 129.508 12.416 129.9 12.416C130.656 12.416 133.638 12.346 134.436 12.276C135.024 12.234 135.346 12.178 135.514 12.122L136.41 13.382C136.088 13.592 135.752 13.788 135.444 14.026C134.688 14.558 133.218 15.79 132.322 16.49C132.798 16.364 133.218 16.336 133.652 16.336C136.032 16.336 137.838 17.82 137.838 19.85C137.838 22.062 136.158 23.812 132.77 23.812C130.824 23.812 129.354 22.93 129.354 21.516C129.354 20.382 130.39 19.346 131.874 19.346C133.792 19.346 134.856 20.634 134.898 22.174L133.26 22.384C133.232 21.376 132.7 20.676 131.874 20.676C131.356 20.676 131.006 20.998 131.006 21.362C131.006 21.88 131.58 22.23 132.434 22.23C134.8 22.23 136.004 21.334 136.004 19.836C136.004 18.562 134.744 17.708 133.106 17.708C130.95 17.708 129.564 18.856 128.066 20.55L126.792 19.234C127.786 18.45 129.48 17.022 130.292 16.336C131.076 15.692 132.546 14.516 133.232 13.9C132.518 13.928 130.586 13.998 129.83 14.054C129.452 14.082 129.018 14.11 128.696 14.166L128.64 12.346ZM146.77 12.71C145.622 14.418 143.466 16.378 141.142 17.694C140.918 17.302 140.442 16.686 140.064 16.336C142.5 15.076 144.768 12.85 145.818 11.044H147.568C149.08 13.284 151.376 15.188 153.63 16.168C153.21 16.602 152.818 17.162 152.496 17.666C150.326 16.462 147.974 14.446 146.77 12.71ZM146.854 18.058H151.558V19.556H146.854V18.058ZM140.862 22.37H152.832V23.882H140.862V22.37ZM146.014 15.048H147.806V23.182H146.014V15.048ZM142.388 17.47H144.04V23.14H142.388V17.47ZM154.904 19.682H167.392V21.054H154.904V19.682ZM154.932 13.396H167.336V14.782H154.932V13.396ZM155.506 15.902H166.804V17.218H155.506V15.902ZM156.206 17.834H166.146V19.052H156.206V17.834ZM160.266 16.574H161.932V24.26H160.266V16.574ZM159.048 11.1H160.616V14.054H159.048V11.1ZM161.638 11.1H163.234V13.956H161.638V11.1ZM159.958 20.298L161.274 20.886C159.944 22.342 157.704 23.532 155.548 24.092C155.324 23.686 154.834 23.042 154.47 22.692C156.584 22.286 158.81 21.362 159.958 20.298ZM162.268 20.256C163.402 21.362 165.586 22.23 167.77 22.594C167.392 22.944 166.888 23.644 166.636 24.106C164.424 23.546 162.282 22.356 160.966 20.774L162.268 20.256ZM164.858 11.212L166.622 11.632C166.174 12.402 165.698 13.158 165.334 13.676L163.976 13.256C164.298 12.682 164.662 11.828 164.858 11.212ZM163.01 14.222L164.788 14.628C164.41 15.3 164.046 15.916 163.752 16.364L162.324 15.958C162.576 15.454 162.87 14.74 163.01 14.222ZM155.94 11.66L157.382 11.17C157.788 11.772 158.25 12.612 158.446 13.158L156.92 13.704C156.766 13.158 156.318 12.304 155.94 11.66ZM157.718 14.796L159.342 14.544C159.58 14.936 159.846 15.482 159.958 15.86L158.25 16.154C158.166 15.79 157.928 15.202 157.718 14.796ZM176.674 13.41C176.478 14.838 176.198 16.476 175.708 18.128C174.868 20.956 173.664 22.692 172.138 22.692C170.57 22.692 169.282 20.97 169.282 18.604C169.282 15.384 172.096 12.612 175.722 12.612C179.18 12.612 181.378 15.02 181.378 18.086C181.378 21.026 179.572 23.112 176.044 23.658L174.98 22.006C175.526 21.936 175.918 21.866 176.296 21.782C178.074 21.348 179.474 20.074 179.474 18.016C179.474 15.818 178.102 14.25 175.68 14.25C172.712 14.25 171.088 16.672 171.088 18.436C171.088 19.85 171.648 20.536 172.18 20.536C172.782 20.536 173.314 19.64 173.902 17.75C174.308 16.434 174.616 14.824 174.756 13.354L176.674 13.41ZM183.898 13.55H195.476V20.578H193.712V15.202H185.592V20.648H183.898V13.55ZM184.78 18.212H194.692V19.864H184.78V18.212ZM188.756 11.114H190.534V24.26H188.756V11.114ZM203.414 11.954C203.33 12.318 203.246 12.766 203.162 13.116C203.036 13.746 202.854 14.614 202.714 15.328C202.252 17.302 201.118 21.292 199.662 23.658L197.828 22.93C199.494 20.69 200.544 16.994 200.936 15.23C201.202 13.97 201.356 12.78 201.342 11.73L203.414 11.954ZM208.244 13.256C209.098 14.474 210.274 17.134 210.708 18.478L208.93 19.304C208.566 17.736 207.572 15.216 206.564 13.97L208.244 13.256ZM197.744 14.824C198.248 14.852 198.724 14.838 199.242 14.824C200.362 14.796 203.008 14.488 204.058 14.488C205.528 14.488 206.578 15.146 206.578 17.176C206.578 18.828 206.382 21.096 205.794 22.3C205.318 23.28 204.548 23.588 203.498 23.588C202.952 23.588 202.294 23.504 201.804 23.392L201.51 21.544C202.056 21.698 202.854 21.838 203.218 21.838C203.694 21.838 204.044 21.698 204.268 21.236C204.66 20.452 204.842 18.744 204.842 17.372C204.842 16.252 204.352 16.084 203.484 16.084C202.644 16.084 200.236 16.392 199.466 16.49C199.06 16.546 198.332 16.644 197.912 16.714L197.744 14.824ZM215.902 11.73C217.232 12.15 220.284 12.696 221.516 12.822L221.096 14.544C219.668 14.348 216.56 13.704 215.468 13.424L215.902 11.73ZM216 14.544C215.804 15.328 215.566 17.022 215.468 17.834C216.728 16.91 218.128 16.49 219.598 16.49C222.048 16.49 223.476 18.002 223.476 19.696C223.476 22.258 221.446 24.218 215.636 23.714L215.09 21.88C219.304 22.468 221.516 21.446 221.516 19.654C221.516 18.744 220.662 18.086 219.43 18.086C217.848 18.086 216.434 18.674 215.552 19.738C215.3 20.032 215.146 20.256 215.034 20.536L213.41 20.144C213.69 18.772 214.026 16.028 214.11 14.292L216 14.544ZM229.09 23.966C228.236 22.93 227.046 21.726 226.066 20.886L227.536 19.626C228.53 20.438 229.874 21.81 230.588 22.678L229.09 23.966ZM98.148 32.83C98.75 32.9 99.506 32.928 100.01 32.928C101.746 32.928 103.636 32.634 104.994 32.2L105.036 33.824C103.832 34.16 101.816 34.524 100.024 34.51C99.464 34.51 98.876 34.496 98.274 34.468L98.148 32.83ZM103.594 30.73C103.412 31.472 103.076 32.844 102.698 34.034C102.054 36.05 100.794 38.654 99.604 40.306L97.91 39.438C99.17 37.898 100.43 35.448 100.976 33.936C101.312 32.928 101.62 31.626 101.662 30.548L103.594 30.73ZM106.884 35.098C106.842 35.686 106.856 36.274 106.87 36.89C106.898 37.716 107.024 39.802 107.024 40.586C107.024 41.888 106.324 42.91 104.322 42.91C102.586 42.91 101.214 42.126 101.214 40.586C101.214 39.228 102.362 38.164 104.308 38.164C106.758 38.164 108.69 39.396 109.852 40.446L108.928 41.958C107.92 41.02 106.324 39.578 104.21 39.578C103.398 39.578 102.866 39.928 102.866 40.418C102.866 40.936 103.314 41.3 104.084 41.3C105.036 41.3 105.344 40.768 105.344 39.984C105.344 39.144 105.19 36.568 105.12 35.098H106.884ZM109.292 35.84C108.48 35.182 106.884 34.272 105.918 33.838L106.828 32.466C107.836 32.9 109.558 33.838 110.286 34.356L109.292 35.84ZM121.724 31.248C121.682 31.472 121.654 32.088 121.64 32.466C121.612 33.404 121.598 34.202 121.584 34.93C121.556 36.162 121.5 37.688 121.36 38.402C121.22 39.144 120.856 39.326 120.142 39.326C119.652 39.326 118.518 39.186 118.042 39.102L118.07 37.576C118.504 37.66 119.092 37.744 119.372 37.744C119.638 37.744 119.764 37.688 119.806 37.422C119.876 36.876 119.904 35.882 119.932 34.916C119.932 34.174 119.932 33.362 119.932 32.536C119.932 32.186 119.876 31.514 119.834 31.248H121.724ZM116.208 31.682C116.152 32.13 116.124 32.536 116.124 33.124C116.124 34.412 116.068 38.108 116.096 39.256C116.138 40.628 116.25 40.936 118.35 40.936C119.722 40.936 121.5 40.768 122.536 40.572L122.466 42.49C121.528 42.602 119.82 42.728 118.476 42.728C114.85 42.728 114.416 41.958 114.36 39.536C114.332 38.332 114.346 34.062 114.346 33.222C114.346 32.648 114.304 32.172 114.234 31.682H116.208ZM111.532 34.832C111.924 34.832 112.568 34.804 113.282 34.748C114.682 34.622 119.96 34.076 122.662 33.908C123.026 33.88 123.586 33.852 124.006 33.81V35.518C123.754 35.504 123.012 35.532 122.648 35.546C120.464 35.616 115.018 36.19 113.394 36.372C112.946 36.428 112.092 36.554 111.7 36.61L111.532 34.832ZM122.802 31.304C123.068 31.85 123.376 32.662 123.544 33.222L122.578 33.53C122.368 32.928 122.13 32.172 121.85 31.598L122.802 31.304ZM124.244 30.814C124.51 31.374 124.832 32.186 125.014 32.732L124.048 33.04C123.838 32.424 123.586 31.668 123.292 31.122L124.244 30.814ZM126.092 38.612H139.028V40.068H126.092V38.612ZM129.326 37.604H130.992V39.046C130.992 40.6 130.544 42.322 127.394 43.246C127.198 42.854 126.694 42.224 126.344 41.902C128.99 41.202 129.326 40.026 129.326 39.004V37.604ZM134.058 37.59H135.724V43.218H134.058V37.59ZM126.596 32.354H132.224V33.488H127.814V37.366H126.596V32.354ZM131.692 32.354H132.938V36.008C132.938 36.568 132.868 36.904 132.504 37.1C132.14 37.296 131.664 37.296 131.02 37.296C130.992 36.96 130.838 36.47 130.684 36.148C131.062 36.148 131.412 36.162 131.524 36.148C131.65 36.134 131.692 36.106 131.692 35.98V32.354ZM126.75 30.674L127.87 30.268C128.206 30.758 128.556 31.43 128.668 31.878L127.478 32.326C127.394 31.878 127.072 31.192 126.75 30.674ZM130.39 34.104L131.104 33.922C131.272 34.412 131.468 35.042 131.524 35.42L130.796 35.658C130.726 35.238 130.544 34.594 130.39 34.104ZM131.748 30.254L132.938 30.618C132.63 31.234 132.308 31.836 132.028 32.27L130.936 31.934C131.202 31.472 131.552 30.758 131.748 30.254ZM128.346 33.922L129.186 34.118C129.018 34.888 128.766 35.756 128.514 36.316C128.346 36.204 127.968 36.022 127.744 35.938C128.024 35.364 128.22 34.622 128.346 33.922ZM134.534 30.114L135.878 30.506C135.332 32.13 134.464 33.88 133.568 34.986C133.414 34.692 132.98 33.992 132.728 33.67C133.47 32.774 134.128 31.43 134.534 30.114ZM134.576 31.402H138.986V32.704H133.932L134.576 31.402ZM129.06 30.114H130.446V32.984H130.306V37.198H129.214V32.984H129.06V30.114ZM136.97 31.976L138.44 32.116C137.824 34.916 136.354 36.554 133.778 37.506C133.666 37.184 133.288 36.54 133.036 36.246C135.248 35.546 136.55 34.216 136.97 31.976ZM134.898 32.564C135.598 34.37 137.068 35.728 139.196 36.274C138.902 36.568 138.482 37.114 138.3 37.492C135.976 36.75 134.492 35.126 133.652 32.858L134.898 32.564ZM145.566 41.216H153.546V42.868H145.566V41.216ZM146.14 34.454H153.21V36.064H146.14V34.454ZM148.814 30.254H150.536V42.014H148.814V30.254ZM140.54 32.704H145.132V34.23H140.54V32.704ZM142.542 37.492L144.208 35.504V43.274H142.542V37.492ZM142.542 30.128H144.208V33.418H142.542V30.128ZM144.04 35.98C144.53 36.316 146.112 37.716 146.49 38.066L145.468 39.424C144.922 38.696 143.746 37.408 143.116 36.792L144.04 35.98ZM144.516 32.704H144.852L145.146 32.648L146.084 33.264C145.02 35.994 142.906 38.444 140.82 39.76C140.666 39.312 140.274 38.486 140.022 38.164C141.926 37.128 143.774 35.07 144.516 33.012V32.704ZM160.924 30.772C160.812 31.29 160.63 32.116 160.238 33.124C159.944 33.81 159.538 34.608 159.146 35.168C159.524 35 160.266 34.902 160.742 34.902C161.904 34.902 162.786 35.588 162.786 36.89C162.786 37.646 162.828 39.172 162.842 40.054H161.162C161.218 39.396 161.246 38.206 161.232 37.45C161.232 36.554 160.672 36.26 160.084 36.26C159.314 36.26 158.432 36.722 157.9 37.226C157.48 37.646 157.088 38.15 156.612 38.766L155.114 37.646C156.906 35.994 157.984 34.482 158.572 32.942C158.852 32.186 159.034 31.332 159.076 30.618L160.924 30.772ZM155.646 32.074C156.36 32.172 157.396 32.228 158.11 32.228C159.958 32.228 162.492 32.13 164.522 31.766L164.508 33.39C162.534 33.67 159.72 33.796 158.012 33.796C157.438 33.796 156.416 33.768 155.646 33.698V32.074ZM166.734 36.05C166.3 36.176 165.544 36.456 165.068 36.638C164.158 36.988 162.898 37.492 161.582 38.164C160.308 38.822 159.622 39.424 159.622 40.194C159.622 40.964 160.294 41.174 161.652 41.174C162.842 41.174 164.41 41.02 165.642 40.768L165.586 42.574C164.648 42.7 162.94 42.826 161.61 42.826C159.426 42.826 157.788 42.28 157.788 40.474C157.788 38.528 159.79 37.38 161.47 36.54C162.758 35.868 163.64 35.532 164.48 35.14C165.026 34.902 165.516 34.678 166.048 34.412L166.734 36.05ZM171.928 35.574V40.726H170.36V37.128H168.904V35.574H171.928ZM171.928 40.082C172.474 41.034 173.496 41.44 174.938 41.51C176.674 41.58 180.118 41.538 182.106 41.384C181.924 41.748 181.672 42.49 181.602 42.952C179.81 43.036 176.702 43.064 174.952 42.994C173.244 42.924 172.096 42.504 171.256 41.412C170.724 41.972 170.164 42.504 169.506 43.134L168.708 41.524C169.268 41.132 169.94 40.6 170.528 40.082H171.928ZM168.82 31.276L170.136 30.436C170.878 31.108 171.746 32.06 172.124 32.746L170.696 33.684C170.374 33.012 169.534 31.99 168.82 31.276ZM172.782 35.84H181.364V37.058H172.782V35.84ZM172.362 37.996H181.798V39.242H172.362V37.996ZM174.644 35.098H176.226V38.598H174.644V35.098ZM177.85 35.098H179.446V38.598H177.85V35.098ZM173.16 32.186H175.204V31.598H172.544V30.548H176.618V33.25H173.16V32.186ZM172.74 32.186H174.126V33.544C174.126 33.838 174.182 33.894 174.546 33.894C174.7 33.894 175.414 33.894 175.624 33.894C175.904 33.894 175.96 33.81 176.016 33.348C176.268 33.53 176.8 33.712 177.178 33.782C177.038 34.734 176.66 35 175.806 35C175.54 35 174.602 35 174.336 35C173.09 35 172.74 34.678 172.74 33.558V32.186ZM177.766 32.186H179.824V31.598H177.094V30.548H181.252V33.25H177.766V32.186ZM177.346 32.186H178.732V33.544C178.732 33.838 178.802 33.894 179.166 33.894C179.334 33.894 180.076 33.894 180.286 33.894C180.58 33.894 180.636 33.81 180.692 33.334C180.944 33.516 181.476 33.684 181.854 33.768C181.714 34.734 181.336 35 180.468 35C180.202 35 179.222 35 178.956 35C177.696 35 177.346 34.678 177.346 33.544V32.186ZM177.612 39.83L178.844 39.144C179.852 39.606 181.084 40.278 181.784 40.754L180.048 41.384C179.53 40.936 178.536 40.306 177.612 39.83ZM175.162 39.144L176.632 39.662C175.904 40.334 174.728 40.978 173.762 41.37C173.496 41.09 172.894 40.586 172.544 40.362C173.524 40.068 174.56 39.62 175.162 39.144ZM190.758 31.612C190.604 31.794 190.464 32.032 190.31 32.27C189.61 33.264 188.63 35.056 187.944 36.302C188.462 35.994 189.008 35.868 189.54 35.868C190.59 35.868 191.22 36.526 191.276 37.702C191.304 38.318 191.276 39.438 191.346 40.026C191.402 40.572 191.78 40.796 192.242 40.796C193.46 40.796 194.216 39.214 194.608 37.478L196.134 38.71C195.392 41.118 194.104 42.714 191.948 42.714C190.394 42.714 189.68 41.776 189.61 40.768C189.568 40.012 189.568 38.878 189.526 38.304C189.484 37.814 189.218 37.52 188.714 37.52C187.762 37.52 186.964 38.5 186.474 39.634C186.096 40.446 185.62 42.014 185.41 42.756L183.436 42.084C184.458 39.284 187.328 33.572 188.084 32.228C188.252 31.864 188.518 31.402 188.77 30.814L190.758 31.612ZM203.162 30.996C203.064 31.374 202.924 32.004 202.854 32.312C202.658 33.264 202.322 34.986 201.944 36.4C201.44 38.36 200.502 41.23 199.732 42.882L197.772 42.224C198.612 40.824 199.676 37.884 200.194 35.924C200.558 34.608 200.88 33.082 200.978 32.242C201.048 31.724 201.062 31.15 201.02 30.828L203.162 30.996ZM199.592 33.082C201.3 33.082 203.274 32.83 205.094 32.396V34.146C203.358 34.552 201.16 34.776 199.578 34.776C198.892 34.776 198.374 34.748 197.884 34.72L197.828 32.984C198.556 33.068 199.018 33.082 199.592 33.082ZM203.988 35.238C204.772 35.154 205.766 35.084 206.69 35.084C207.488 35.084 208.328 35.126 209.14 35.21L209.112 36.89C208.398 36.806 207.544 36.722 206.704 36.722C205.724 36.722 204.87 36.764 203.988 36.876V35.238ZM204.744 38.752C204.646 39.144 204.562 39.606 204.562 39.914C204.562 40.53 204.968 40.992 206.48 40.992C207.404 40.992 208.384 40.88 209.378 40.698L209.308 42.49C208.524 42.588 207.586 42.7 206.466 42.7C204.1 42.7 202.84 41.874 202.84 40.46C202.84 39.816 202.952 39.144 203.078 38.584L204.744 38.752ZM207.642 31.402C208.006 31.906 208.496 32.802 208.762 33.32L207.642 33.796C207.348 33.222 206.914 32.396 206.536 31.85L207.642 31.402ZM209.308 30.758C209.672 31.29 210.19 32.172 210.442 32.676L209.322 33.152C209.042 32.564 208.58 31.752 208.202 31.22L209.308 30.758ZM219.514 32.41C219.318 33.838 219.038 35.476 218.548 37.128C217.708 39.956 216.504 41.692 214.978 41.692C213.41 41.692 212.122 39.97 212.122 37.604C212.122 34.384 214.936 31.612 218.562 31.612C222.02 31.612 224.218 34.02 224.218 37.086C224.218 40.026 222.412 42.112 218.884 42.658L217.82 41.006C218.366 40.936 218.758 40.866 219.136 40.782C220.914 40.348 222.314 39.074 222.314 37.016C222.314 34.818 220.942 33.25 218.52 33.25C215.552 33.25 213.928 35.672 213.928 37.436C213.928 38.85 214.488 39.536 215.02 39.536C215.622 39.536 216.154 38.64 216.742 36.75C217.148 35.434 217.456 33.824 217.596 32.354L219.514 32.41ZM226.486 32.41C227.032 32.396 227.592 32.368 227.858 32.34C229.02 32.228 231.33 32.032 233.892 31.808C235.348 31.696 236.874 31.598 237.868 31.556L237.882 33.362C237.126 33.362 235.922 33.376 235.166 33.544C233.486 33.992 232.212 35.812 232.212 37.478C232.212 39.774 234.368 40.614 236.734 40.726L236.076 42.644C233.15 42.462 230.378 40.88 230.378 37.842C230.378 35.84 231.512 34.244 232.45 33.53C231.148 33.67 228.278 33.978 226.668 34.328L226.486 32.41ZM235.88 34.734C236.216 35.224 236.72 36.078 236.986 36.638L235.936 37.1C235.572 36.344 235.278 35.784 234.844 35.168L235.88 34.734ZM237.434 34.09C237.798 34.58 238.33 35.406 238.624 35.952L237.574 36.456C237.196 35.7 236.874 35.168 236.426 34.552L237.434 34.09ZM248.942 30.716C248.9 30.954 248.858 31.696 248.844 31.92C248.802 32.844 248.83 35.7 248.844 36.82L247.094 36.232C247.094 35.364 247.094 32.676 247.038 31.934C246.996 31.374 246.94 30.898 246.912 30.716H248.942ZM241.018 32.466C243.104 32.466 246.8 32.354 248.55 32.354C249.978 32.354 252.106 32.34 252.89 32.354L252.862 34.006C251.994 33.964 250.566 33.922 248.508 33.922C245.96 33.922 243.174 34.034 241.06 34.146L241.018 32.466ZM248.606 36.61C248.606 38.892 247.766 40.026 246.156 40.026C245.078 40.026 243.734 39.172 243.734 37.464C243.734 35.882 245.022 34.846 246.534 34.846C248.382 34.846 249.348 36.204 249.348 37.94C249.348 39.774 248.27 42.084 244.854 43.05L243.37 41.566C245.75 41.048 247.612 40.11 247.612 37.66C247.612 36.75 247.122 36.316 246.506 36.316C245.96 36.316 245.414 36.694 245.414 37.436C245.414 38.066 245.932 38.472 246.506 38.472C247.164 38.472 247.738 37.912 247.29 36.246L248.606 36.61ZM260.534 30.954C260.45 31.318 260.366 31.766 260.282 32.116C260.156 32.746 259.974 33.614 259.834 34.328C259.372 36.302 258.238 40.292 256.782 42.658L254.948 41.93C256.614 39.69 257.664 35.994 258.056 34.23C258.322 32.97 258.476 31.78 258.462 30.73L260.534 30.954ZM265.364 32.256C266.218 33.474 267.394 36.134 267.828 37.478L266.05 38.304C265.686 36.736 264.692 34.216 263.684 32.97L265.364 32.256ZM254.864 33.824C255.368 33.852 255.844 33.838 256.362 33.824C257.482 33.796 260.128 33.488 261.178 33.488C262.648 33.488 263.698 34.146 263.698 36.176C263.698 37.828 263.502 40.096 262.914 41.3C262.438 42.28 261.668 42.588 260.618 42.588C260.072 42.588 259.414 42.504 258.924 42.392L258.63 40.544C259.176 40.698 259.974 40.838 260.338 40.838C260.814 40.838 261.164 40.698 261.388 40.236C261.78 39.452 261.962 37.744 261.962 36.372C261.962 35.252 261.472 35.084 260.604 35.084C259.764 35.084 257.356 35.392 256.586 35.49C256.18 35.546 255.452 35.644 255.032 35.714L254.864 33.824ZM274.282 38.402C273.988 36.204 276.97 35.714 276.97 34.356C276.97 33.502 276.298 33.026 275.192 33.026C274.338 33.026 273.638 33.418 272.952 34.132L271.804 33.082C272.7 32.046 273.932 31.36 275.43 31.36C277.46 31.36 278.944 32.312 278.944 34.174C278.944 36.218 275.878 36.47 276.102 38.402H274.282ZM275.206 42.14C274.478 42.14 273.96 41.622 273.96 40.894C273.96 40.166 274.492 39.662 275.206 39.662C275.906 39.662 276.438 40.166 276.438 40.894C276.438 41.622 275.906 42.14 275.206 42.14Z" fill="black"/>
</svg>
